<mxfile host="app.diagrams.net" modified="2024-05-14T23:50:58.654Z" agent="Mozilla/5.0 (Windows NT 10.0; Win64; x64) AppleWebKit/537.36 (KHTML, like Gecko) Chrome/124.0.0.0 Safari/537.36" etag="6tic9tWyojs_oLyB5yJ-" version="24.4.0" type="device">
  <diagram id="g0yqaho6M9Vi8rG3EyMe" name="Page-5">
    <mxGraphModel dx="4986" dy="2916" grid="1" gridSize="10" guides="1" tooltips="1" connect="1" arrows="1" fold="1" page="1" pageScale="1" pageWidth="850" pageHeight="1100" math="0" shadow="0">
      <root>
        <mxCell id="0" />
        <mxCell id="1" parent="0" />
        <mxCell id="lWT77cSxJRv39axQW5ry-1" style="edgeStyle=orthogonalEdgeStyle;rounded=0;orthogonalLoop=1;jettySize=auto;html=1;entryX=0.45;entryY=0;entryDx=0;entryDy=0;entryPerimeter=0;" parent="1" source="lWT77cSxJRv39axQW5ry-3" target="lWT77cSxJRv39axQW5ry-4" edge="1">
          <mxGeometry relative="1" as="geometry" />
        </mxCell>
        <mxCell id="2R_Mq-qP3hl-uTZaljwN-10" style="edgeStyle=orthogonalEdgeStyle;rounded=0;orthogonalLoop=1;jettySize=auto;html=1;" parent="1" source="lWT77cSxJRv39axQW5ry-3" target="lWT77cSxJRv39axQW5ry-5" edge="1">
          <mxGeometry relative="1" as="geometry" />
        </mxCell>
        <mxCell id="lWT77cSxJRv39axQW5ry-3" value="Dowloadable,accesible&lt;br&gt;drawio files&amp;nbsp;" style="ellipse;whiteSpace=wrap;html=1;" parent="1" vertex="1">
          <mxGeometry x="-330" y="-103.75" width="160" height="80" as="geometry" />
        </mxCell>
        <mxCell id="lWT77cSxJRv39axQW5ry-4" value="Not english title and labels in the diagrams (asian language)" style="rounded=1;whiteSpace=wrap;html=1;fillColor=#FFFFFF;" parent="1" vertex="1">
          <mxGeometry x="-410" y="36.25" width="120" height="60" as="geometry" />
        </mxCell>
        <mxCell id="2R_Mq-qP3hl-uTZaljwN-7" style="edgeStyle=orthogonalEdgeStyle;rounded=0;orthogonalLoop=1;jettySize=auto;html=1;" parent="1" source="lWT77cSxJRv39axQW5ry-5" target="fi_DRwfdxknw2W3VvZuJ-1" edge="1">
          <mxGeometry relative="1" as="geometry" />
        </mxCell>
        <mxCell id="lWT77cSxJRv39axQW5ry-5" value="English diagram" style="rounded=1;whiteSpace=wrap;html=1;fillColor=#FFFFFF;" parent="1" vertex="1">
          <mxGeometry x="-205" y="39.25" width="120" height="50" as="geometry" />
        </mxCell>
        <mxCell id="HIV6A7X4asPZg9ZUjG2q-35" style="edgeStyle=orthogonalEdgeStyle;rounded=0;orthogonalLoop=1;jettySize=auto;html=1;entryX=1;entryY=0.5;entryDx=0;entryDy=0;" parent="1" source="lWT77cSxJRv39axQW5ry-9" target="HIV6A7X4asPZg9ZUjG2q-30" edge="1">
          <mxGeometry relative="1" as="geometry" />
        </mxCell>
        <mxCell id="lWT77cSxJRv39axQW5ry-9" value="Multiple diagrams in one file" style="whiteSpace=wrap;html=1;rounded=1;fillColor=#FFFFFF;strokeColor=#000000;" parent="1" vertex="1">
          <mxGeometry x="-400" y="236.25" width="120" height="60" as="geometry" />
        </mxCell>
        <mxCell id="lWT77cSxJRv39axQW5ry-25" value="one diagram&amp;nbsp;&lt;br&gt;in one file&lt;br&gt;" style="whiteSpace=wrap;html=1;rounded=1;fillColor=#FFFFFF;strokeColor=#000000;" parent="1" vertex="1">
          <mxGeometry x="-20" y="236.25" width="120" height="60" as="geometry" />
        </mxCell>
        <mxCell id="lWT77cSxJRv39axQW5ry-42" value="UML State machine" style="rounded=1;whiteSpace=wrap;html=1;fillColor=#d5e8d4;strokeColor=#82b366;" parent="1" vertex="1">
          <mxGeometry x="2490" y="130" width="120" height="60" as="geometry" />
        </mxCell>
        <mxCell id="lWT77cSxJRv39axQW5ry-43" value="UML Activity diagram" style="rounded=1;whiteSpace=wrap;html=1;fillColor=#d5e8d4;strokeColor=#82b366;" parent="1" vertex="1">
          <mxGeometry x="2110" y="583" width="120" height="60" as="geometry" />
        </mxCell>
        <mxCell id="yZhDhwmxqZO9taKAHuWY-1" style="edgeStyle=orthogonalEdgeStyle;rounded=0;orthogonalLoop=1;jettySize=auto;html=1;" parent="1" source="lWT77cSxJRv39axQW5ry-44" target="x6S1XF_horREQcLStKP8-41" edge="1">
          <mxGeometry relative="1" as="geometry" />
        </mxCell>
        <mxCell id="lWT77cSxJRv39axQW5ry-44" value="UML Class diagram" style="rounded=1;whiteSpace=wrap;html=1;fillColor=#d5e8d4;strokeColor=#82b366;" parent="1" vertex="1">
          <mxGeometry x="1920" y="755" width="120" height="60" as="geometry" />
        </mxCell>
        <mxCell id="yZhDhwmxqZO9taKAHuWY-8" style="edgeStyle=orthogonalEdgeStyle;rounded=0;orthogonalLoop=1;jettySize=auto;html=1;entryX=0.79;entryY=0.004;entryDx=0;entryDy=0;entryPerimeter=0;" parent="1" source="lWT77cSxJRv39axQW5ry-46" target="x6S1XF_horREQcLStKP8-42" edge="1">
          <mxGeometry relative="1" as="geometry">
            <mxPoint x="2800" y="1610" as="targetPoint" />
            <Array as="points">
              <mxPoint x="2800" y="478" />
            </Array>
          </mxGeometry>
        </mxCell>
        <mxCell id="lWT77cSxJRv39axQW5ry-46" value="UML Sequence diagram" style="rounded=1;whiteSpace=wrap;html=1;fillColor=#d5e8d4;strokeColor=#82b366;" parent="1" vertex="1">
          <mxGeometry x="2240" y="448" width="120" height="60" as="geometry" />
        </mxCell>
        <mxCell id="lWT77cSxJRv39axQW5ry-47" value="UML Use case diagram" style="rounded=1;whiteSpace=wrap;html=1;fillColor=#d5e8d4;strokeColor=#82b366;" parent="1" vertex="1">
          <mxGeometry x="2420" y="296.5" width="120" height="60" as="geometry" />
        </mxCell>
        <mxCell id="2R_Mq-qP3hl-uTZaljwN-8" style="edgeStyle=orthogonalEdgeStyle;rounded=0;orthogonalLoop=1;jettySize=auto;html=1;entryX=0.5;entryY=0;entryDx=0;entryDy=0;" parent="1" source="fi_DRwfdxknw2W3VvZuJ-1" target="fi_DRwfdxknw2W3VvZuJ-2" edge="1">
          <mxGeometry relative="1" as="geometry" />
        </mxCell>
        <mxCell id="fi_DRwfdxknw2W3VvZuJ-1" value="The diagram is a graph in a single file composed by nodes and edges connected together" style="rounded=0;whiteSpace=wrap;html=1;fillColor=#FFFFFF;" parent="1" vertex="1">
          <mxGeometry x="-210" y="121.25" width="130" height="70" as="geometry" />
        </mxCell>
        <mxCell id="fi_DRwfdxknw2W3VvZuJ-6" value="" style="edgeStyle=orthogonalEdgeStyle;rounded=0;orthogonalLoop=1;jettySize=auto;html=1;" parent="1" source="fi_DRwfdxknw2W3VvZuJ-2" target="lWT77cSxJRv39axQW5ry-9" edge="1">
          <mxGeometry relative="1" as="geometry" />
        </mxCell>
        <mxCell id="fi_DRwfdxknw2W3VvZuJ-13" value="YES" style="edgeLabel;html=1;align=center;verticalAlign=middle;resizable=0;points=[];" parent="fi_DRwfdxknw2W3VvZuJ-6" vertex="1" connectable="0">
          <mxGeometry x="-0.3" relative="1" as="geometry">
            <mxPoint x="-10" y="-13" as="offset" />
          </mxGeometry>
        </mxCell>
        <mxCell id="fi_DRwfdxknw2W3VvZuJ-9" value="" style="edgeStyle=orthogonalEdgeStyle;rounded=0;orthogonalLoop=1;jettySize=auto;html=1;" parent="1" source="fi_DRwfdxknw2W3VvZuJ-2" target="lWT77cSxJRv39axQW5ry-25" edge="1">
          <mxGeometry relative="1" as="geometry" />
        </mxCell>
        <mxCell id="fi_DRwfdxknw2W3VvZuJ-2" value="&lt;font style=&quot;font-size: 12px;&quot;&gt;Are there multiple&lt;br&gt;(more than one) disconnected graph in the same file?&lt;/font&gt;" style="rhombus;whiteSpace=wrap;html=1;" parent="1" vertex="1">
          <mxGeometry x="-225" y="216.25" width="160" height="100" as="geometry" />
        </mxCell>
        <mxCell id="fi_DRwfdxknw2W3VvZuJ-14" value="NO" style="text;html=1;align=center;verticalAlign=middle;resizable=0;points=[];autosize=1;strokeColor=none;fillColor=none;" parent="1" vertex="1">
          <mxGeometry x="-70" y="246.25" width="40" height="30" as="geometry" />
        </mxCell>
        <mxCell id="x5G_cTCm3bgmRb3xKKLD-9" style="edgeStyle=orthogonalEdgeStyle;rounded=0;orthogonalLoop=1;jettySize=auto;html=1;" parent="1" source="i2K-thLx9bkCnsyA0vhA-2" target="r52k8dpdeudDNzzBSPMd-13" edge="1">
          <mxGeometry relative="1" as="geometry" />
        </mxCell>
        <mxCell id="i2K-thLx9bkCnsyA0vhA-2" value="Does it follow &lt;br&gt;the set of Standard UML notation?" style="rhombus;whiteSpace=wrap;html=1;" parent="1" vertex="1">
          <mxGeometry x="930" y="740" width="140" height="100" as="geometry" />
        </mxCell>
        <mxCell id="i2K-thLx9bkCnsyA0vhA-7" value="YES" style="text;html=1;align=center;verticalAlign=middle;resizable=0;points=[];autosize=1;strokeColor=none;fillColor=none;" parent="1" vertex="1">
          <mxGeometry x="1080.95" y="750" width="50" height="30" as="geometry" />
        </mxCell>
        <mxCell id="i2K-thLx9bkCnsyA0vhA-29" value="" style="edgeStyle=orthogonalEdgeStyle;rounded=0;orthogonalLoop=1;jettySize=auto;html=1;" parent="1" source="i2K-thLx9bkCnsyA0vhA-25" target="lWT77cSxJRv39axQW5ry-44" edge="1">
          <mxGeometry relative="1" as="geometry" />
        </mxCell>
        <mxCell id="HIV6A7X4asPZg9ZUjG2q-15" style="edgeStyle=orthogonalEdgeStyle;rounded=0;orthogonalLoop=1;jettySize=auto;html=1;entryX=0.5;entryY=1;entryDx=0;entryDy=0;" parent="1" source="i2K-thLx9bkCnsyA0vhA-25" target="-Ke6xEiIj_Nhw5eZfoAC-1" edge="1">
          <mxGeometry relative="1" as="geometry" />
        </mxCell>
        <mxCell id="i2K-thLx9bkCnsyA0vhA-25" value="Is the diagram &lt;br&gt;composed by only the notation &lt;br&gt;represented in [A]?" style="rhombus;whiteSpace=wrap;html=1;" parent="1" vertex="1">
          <mxGeometry x="1325" y="740" width="190" height="90" as="geometry" />
        </mxCell>
        <mxCell id="-Ke6xEiIj_Nhw5eZfoAC-16" value="" style="edgeStyle=orthogonalEdgeStyle;rounded=0;orthogonalLoop=1;jettySize=auto;html=1;" parent="1" source="-Ke6xEiIj_Nhw5eZfoAC-1" target="-Ke6xEiIj_Nhw5eZfoAC-12" edge="1">
          <mxGeometry relative="1" as="geometry">
            <Array as="points">
              <mxPoint x="1420" y="505" />
            </Array>
          </mxGeometry>
        </mxCell>
        <mxCell id="HIV6A7X4asPZg9ZUjG2q-22" style="edgeStyle=orthogonalEdgeStyle;rounded=0;orthogonalLoop=1;jettySize=auto;html=1;entryX=0;entryY=0.75;entryDx=0;entryDy=0;" parent="1" source="-Ke6xEiIj_Nhw5eZfoAC-1" target="lWT77cSxJRv39axQW5ry-43" edge="1">
          <mxGeometry relative="1" as="geometry" />
        </mxCell>
        <mxCell id="-Ke6xEiIj_Nhw5eZfoAC-1" value="Is the diagram &lt;br&gt;composed by only the notation &lt;br&gt;represented in [B]?" style="rhombus;whiteSpace=wrap;html=1;" parent="1" vertex="1">
          <mxGeometry x="1325" y="583" width="190" height="90" as="geometry" />
        </mxCell>
        <mxCell id="-Ke6xEiIj_Nhw5eZfoAC-13" value="" style="edgeStyle=orthogonalEdgeStyle;rounded=0;orthogonalLoop=1;jettySize=auto;html=1;" parent="1" source="-Ke6xEiIj_Nhw5eZfoAC-12" target="lWT77cSxJRv39axQW5ry-46" edge="1">
          <mxGeometry relative="1" as="geometry" />
        </mxCell>
        <mxCell id="-Ke6xEiIj_Nhw5eZfoAC-22" value="" style="edgeStyle=orthogonalEdgeStyle;rounded=0;orthogonalLoop=1;jettySize=auto;html=1;" parent="1" source="-Ke6xEiIj_Nhw5eZfoAC-12" target="-Ke6xEiIj_Nhw5eZfoAC-19" edge="1">
          <mxGeometry relative="1" as="geometry" />
        </mxCell>
        <mxCell id="-Ke6xEiIj_Nhw5eZfoAC-12" value="Is the diagram &lt;br&gt;composed by only the notation &lt;br&gt;represented in [C]?" style="rhombus;whiteSpace=wrap;html=1;" parent="1" vertex="1">
          <mxGeometry x="1325" y="433" width="190" height="90" as="geometry" />
        </mxCell>
        <mxCell id="-Ke6xEiIj_Nhw5eZfoAC-14" value="YES" style="text;html=1;align=center;verticalAlign=middle;resizable=0;points=[];autosize=1;strokeColor=none;fillColor=none;" parent="1" vertex="1">
          <mxGeometry x="1515.94" y="605" width="50" height="30" as="geometry" />
        </mxCell>
        <mxCell id="-Ke6xEiIj_Nhw5eZfoAC-20" value="" style="edgeStyle=orthogonalEdgeStyle;rounded=0;orthogonalLoop=1;jettySize=auto;html=1;" parent="1" source="-Ke6xEiIj_Nhw5eZfoAC-19" target="lWT77cSxJRv39axQW5ry-47" edge="1">
          <mxGeometry relative="1" as="geometry" />
        </mxCell>
        <mxCell id="HIV6A7X4asPZg9ZUjG2q-17" style="edgeStyle=orthogonalEdgeStyle;rounded=0;orthogonalLoop=1;jettySize=auto;html=1;entryX=0.5;entryY=1;entryDx=0;entryDy=0;" parent="1" source="-Ke6xEiIj_Nhw5eZfoAC-19" target="-Ke6xEiIj_Nhw5eZfoAC-24" edge="1">
          <mxGeometry relative="1" as="geometry" />
        </mxCell>
        <mxCell id="-Ke6xEiIj_Nhw5eZfoAC-19" value="Is the diagram &lt;br&gt;composed by only the notation &lt;br&gt;represented in [D]?" style="rhombus;whiteSpace=wrap;html=1;" parent="1" vertex="1">
          <mxGeometry x="1325" y="280" width="190" height="93" as="geometry" />
        </mxCell>
        <mxCell id="-Ke6xEiIj_Nhw5eZfoAC-21" value="YES" style="text;html=1;align=center;verticalAlign=middle;resizable=0;points=[];autosize=1;strokeColor=none;fillColor=none;" parent="1" vertex="1">
          <mxGeometry x="1505" y="300" width="50" height="30" as="geometry" />
        </mxCell>
        <mxCell id="HIV6A7X4asPZg9ZUjG2q-24" style="edgeStyle=orthogonalEdgeStyle;rounded=0;orthogonalLoop=1;jettySize=auto;html=1;entryX=0;entryY=0.75;entryDx=0;entryDy=0;" parent="1" source="-Ke6xEiIj_Nhw5eZfoAC-24" target="lWT77cSxJRv39axQW5ry-42" edge="1">
          <mxGeometry relative="1" as="geometry" />
        </mxCell>
        <mxCell id="UDX0wKx2XlwWkAEXpSnz-12" style="edgeStyle=orthogonalEdgeStyle;rounded=0;orthogonalLoop=1;jettySize=auto;html=1;entryX=0.5;entryY=1;entryDx=0;entryDy=0;" edge="1" parent="1" source="-Ke6xEiIj_Nhw5eZfoAC-24" target="UDX0wKx2XlwWkAEXpSnz-1">
          <mxGeometry relative="1" as="geometry" />
        </mxCell>
        <mxCell id="-Ke6xEiIj_Nhw5eZfoAC-24" value="Is the diagram &lt;br&gt;composed by only the notation &lt;br&gt;represented in [E]?" style="rhombus;whiteSpace=wrap;html=1;" parent="1" vertex="1">
          <mxGeometry x="1325" y="130" width="190" height="90" as="geometry" />
        </mxCell>
        <mxCell id="-Ke6xEiIj_Nhw5eZfoAC-32" value="NO" style="text;html=1;align=center;verticalAlign=middle;resizable=0;points=[];autosize=1;strokeColor=none;fillColor=none;" parent="1" vertex="1">
          <mxGeometry x="1420" y="100" width="40" height="30" as="geometry" />
        </mxCell>
        <mxCell id="x5G_cTCm3bgmRb3xKKLD-1" style="edgeStyle=orthogonalEdgeStyle;rounded=0;orthogonalLoop=1;jettySize=auto;html=1;entryX=0;entryY=0.5;entryDx=0;entryDy=0;" parent="1" source="r52k8dpdeudDNzzBSPMd-13" target="r52k8dpdeudDNzzBSPMd-16" edge="1">
          <mxGeometry relative="1" as="geometry" />
        </mxCell>
        <mxCell id="x5G_cTCm3bgmRb3xKKLD-7" style="edgeStyle=orthogonalEdgeStyle;rounded=0;orthogonalLoop=1;jettySize=auto;html=1;entryX=0.5;entryY=0;entryDx=0;entryDy=0;" parent="1" source="r52k8dpdeudDNzzBSPMd-13" target="x5G_cTCm3bgmRb3xKKLD-6" edge="1">
          <mxGeometry relative="1" as="geometry" />
        </mxCell>
        <mxCell id="r52k8dpdeudDNzzBSPMd-13" value="&lt;font style=&quot;font-size: 12px;&quot;&gt;Is the diagram&lt;br&gt;&amp;nbsp;composed&amp;nbsp; by entity &lt;br&gt;relationship diagram &lt;br&gt;(ERD)tables and their relationship?&lt;/font&gt;" style="rhombus;whiteSpace=wrap;html=1;" parent="1" vertex="1">
          <mxGeometry x="913.91" y="960" width="175" height="150" as="geometry" />
        </mxCell>
        <mxCell id="x6S1XF_horREQcLStKP8-50" style="edgeStyle=orthogonalEdgeStyle;rounded=0;orthogonalLoop=1;jettySize=auto;html=1;entryX=0.091;entryY=0.004;entryDx=0;entryDy=0;entryPerimeter=0;" parent="1" source="r52k8dpdeudDNzzBSPMd-16" edge="1" target="x6S1XF_horREQcLStKP8-41">
          <mxGeometry relative="1" as="geometry">
            <mxPoint x="3040" y="1900" as="targetPoint" />
          </mxGeometry>
        </mxCell>
        <mxCell id="r52k8dpdeudDNzzBSPMd-16" value="Database schema/Entity relationship diagram" style="rounded=1;whiteSpace=wrap;html=1;fillColor=#d5e8d4;strokeColor=#82b366;" parent="1" vertex="1">
          <mxGeometry x="1260.78" y="1005" width="117.5" height="60" as="geometry" />
        </mxCell>
        <mxCell id="x5G_cTCm3bgmRb3xKKLD-4" value="It provides the structure of a database and how the data are stored" style="text;html=1;align=center;verticalAlign=middle;resizable=0;points=[];autosize=1;strokeColor=none;fillColor=none;" parent="1" vertex="1">
          <mxGeometry x="1400" y="1010" width="380" height="30" as="geometry" />
        </mxCell>
        <mxCell id="x5G_cTCm3bgmRb3xKKLD-5" value="YES" style="text;html=1;align=center;verticalAlign=middle;resizable=0;points=[];autosize=1;strokeColor=none;fillColor=none;" parent="1" vertex="1">
          <mxGeometry x="1085" y="1010" width="50" height="30" as="geometry" />
        </mxCell>
        <mxCell id="x5G_cTCm3bgmRb3xKKLD-12" style="edgeStyle=orthogonalEdgeStyle;rounded=0;orthogonalLoop=1;jettySize=auto;html=1;" parent="1" source="x5G_cTCm3bgmRb3xKKLD-6" target="x5G_cTCm3bgmRb3xKKLD-11" edge="1">
          <mxGeometry relative="1" as="geometry" />
        </mxCell>
        <mxCell id="KvZBlQ7mOzaGUyVHDQQl-14" value="" style="edgeStyle=orthogonalEdgeStyle;rounded=0;orthogonalLoop=1;jettySize=auto;html=1;" parent="1" source="x5G_cTCm3bgmRb3xKKLD-6" target="x5G_cTCm3bgmRb3xKKLD-25" edge="1">
          <mxGeometry relative="1" as="geometry" />
        </mxCell>
        <mxCell id="x5G_cTCm3bgmRb3xKKLD-6" value="&lt;font style=&quot;font-size: 12px;&quot;&gt;Is the diagram&lt;br&gt;&amp;nbsp;composed&amp;nbsp; of only rectangles, diamonds shape, and arrows to &lt;br&gt;indicate different steps&lt;br&gt;&amp;nbsp;and decisions?&amp;nbsp;&lt;/font&gt;" style="rhombus;whiteSpace=wrap;html=1;" parent="1" vertex="1">
          <mxGeometry x="904.5400000000001" y="1245" width="193.75" height="150" as="geometry" />
        </mxCell>
        <mxCell id="x5G_cTCm3bgmRb3xKKLD-8" value="NO" style="text;html=1;align=center;verticalAlign=middle;resizable=0;points=[];autosize=1;strokeColor=none;fillColor=none;" parent="1" vertex="1">
          <mxGeometry x="1000" y="1160" width="40" height="30" as="geometry" />
        </mxCell>
        <mxCell id="x5G_cTCm3bgmRb3xKKLD-10" value="NO" style="text;html=1;align=center;verticalAlign=middle;resizable=0;points=[];autosize=1;strokeColor=none;fillColor=none;" parent="1" vertex="1">
          <mxGeometry x="1000" y="828" width="40" height="30" as="geometry" />
        </mxCell>
        <mxCell id="x5G_cTCm3bgmRb3xKKLD-15" style="edgeStyle=orthogonalEdgeStyle;rounded=0;orthogonalLoop=1;jettySize=auto;html=1;entryX=0;entryY=0.5;entryDx=0;entryDy=0;" parent="1" source="x5G_cTCm3bgmRb3xKKLD-11" edge="1">
          <mxGeometry relative="1" as="geometry">
            <mxPoint x="1480" y="1320" as="targetPoint" />
          </mxGeometry>
        </mxCell>
        <mxCell id="UDX0wKx2XlwWkAEXpSnz-96" style="edgeStyle=orthogonalEdgeStyle;rounded=0;orthogonalLoop=1;jettySize=auto;html=1;entryX=0.5;entryY=0;entryDx=0;entryDy=0;" edge="1" parent="1" source="x5G_cTCm3bgmRb3xKKLD-11" target="x5G_cTCm3bgmRb3xKKLD-6">
          <mxGeometry relative="1" as="geometry">
            <Array as="points">
              <mxPoint x="1290" y="1225" />
              <mxPoint x="1001" y="1225" />
            </Array>
          </mxGeometry>
        </mxCell>
        <mxCell id="x5G_cTCm3bgmRb3xKKLD-11" value="Does it show &lt;br&gt;the flow of processes or activities in a sequential manner?" style="rhombus;whiteSpace=wrap;html=1;" parent="1" vertex="1">
          <mxGeometry x="1215" y="1260" width="155" height="120" as="geometry" />
        </mxCell>
        <mxCell id="x5G_cTCm3bgmRb3xKKLD-13" value="YES" style="text;html=1;align=center;verticalAlign=middle;resizable=0;points=[];autosize=1;strokeColor=none;fillColor=none;" parent="1" vertex="1">
          <mxGeometry x="1100" y="1295" width="50" height="30" as="geometry" />
        </mxCell>
        <mxCell id="x5G_cTCm3bgmRb3xKKLD-16" value="YES" style="text;html=1;align=center;verticalAlign=middle;resizable=0;points=[];autosize=1;strokeColor=none;fillColor=none;" parent="1" vertex="1">
          <mxGeometry x="1395" y="1295" width="50" height="30" as="geometry" />
        </mxCell>
        <mxCell id="x5G_cTCm3bgmRb3xKKLD-18" value="NO" style="text;html=1;align=center;verticalAlign=middle;resizable=0;points=[];autosize=1;strokeColor=none;fillColor=none;" parent="1" vertex="1">
          <mxGeometry x="1285" y="1230" width="40" height="30" as="geometry" />
        </mxCell>
        <mxCell id="KvZBlQ7mOzaGUyVHDQQl-18" style="edgeStyle=orthogonalEdgeStyle;rounded=0;orthogonalLoop=1;jettySize=auto;html=1;entryX=0;entryY=0.5;entryDx=0;entryDy=0;" parent="1" source="x5G_cTCm3bgmRb3xKKLD-22" target="x5G_cTCm3bgmRb3xKKLD-23" edge="1">
          <mxGeometry relative="1" as="geometry" />
        </mxCell>
        <mxCell id="UDX0wKx2XlwWkAEXpSnz-31" style="edgeStyle=orthogonalEdgeStyle;rounded=0;orthogonalLoop=1;jettySize=auto;html=1;entryX=0.5;entryY=0;entryDx=0;entryDy=0;" edge="1" parent="1" source="x5G_cTCm3bgmRb3xKKLD-22" target="x5G_cTCm3bgmRb3xKKLD-25">
          <mxGeometry relative="1" as="geometry">
            <Array as="points">
              <mxPoint x="1290" y="1430" />
              <mxPoint x="1000" y="1430" />
            </Array>
          </mxGeometry>
        </mxCell>
        <mxCell id="x5G_cTCm3bgmRb3xKKLD-22" value="Does it include a &lt;br&gt;legend of which shapes&lt;br&gt;&amp;nbsp;are used to represent&lt;br&gt;&amp;nbsp;each element?" style="rhombus;whiteSpace=wrap;html=1;" parent="1" vertex="1">
          <mxGeometry x="1215" y="1455" width="155" height="120" as="geometry" />
        </mxCell>
        <mxCell id="KvZBlQ7mOzaGUyVHDQQl-17" style="edgeStyle=orthogonalEdgeStyle;rounded=0;orthogonalLoop=1;jettySize=auto;html=1;exitX=0.5;exitY=1;exitDx=0;exitDy=0;" parent="1" source="x5G_cTCm3bgmRb3xKKLD-23" edge="1">
          <mxGeometry relative="1" as="geometry">
            <mxPoint x="1540.090909090908" y="1510" as="targetPoint" />
          </mxGeometry>
        </mxCell>
        <mxCell id="yZhDhwmxqZO9taKAHuWY-11" style="edgeStyle=orthogonalEdgeStyle;rounded=0;orthogonalLoop=1;jettySize=auto;html=1;entryX=0.75;entryY=0;entryDx=0;entryDy=0;" parent="1" source="x5G_cTCm3bgmRb3xKKLD-23" target="x6S1XF_horREQcLStKP8-41" edge="1">
          <mxGeometry relative="1" as="geometry" />
        </mxCell>
        <mxCell id="x5G_cTCm3bgmRb3xKKLD-23" value="C4 diagram" style="rounded=1;whiteSpace=wrap;html=1;fillColor=#d5e8d4;strokeColor=#82b366;" parent="1" vertex="1">
          <mxGeometry x="1480" y="1485" width="120" height="60" as="geometry" />
        </mxCell>
        <mxCell id="KvZBlQ7mOzaGUyVHDQQl-15" style="edgeStyle=orthogonalEdgeStyle;rounded=0;orthogonalLoop=1;jettySize=auto;html=1;entryX=0;entryY=0.5;entryDx=0;entryDy=0;" parent="1" source="x5G_cTCm3bgmRb3xKKLD-25" target="x5G_cTCm3bgmRb3xKKLD-22" edge="1">
          <mxGeometry relative="1" as="geometry" />
        </mxCell>
        <mxCell id="P2aJrEbKzBuw7Wg_0Yq4-2" style="edgeStyle=orthogonalEdgeStyle;rounded=0;orthogonalLoop=1;jettySize=auto;html=1;entryX=0.5;entryY=0;entryDx=0;entryDy=0;" parent="1" source="x5G_cTCm3bgmRb3xKKLD-25" target="P2aJrEbKzBuw7Wg_0Yq4-1" edge="1">
          <mxGeometry relative="1" as="geometry" />
        </mxCell>
        <mxCell id="x5G_cTCm3bgmRb3xKKLD-25" value="&lt;font style=&quot;font-size: 12px;&quot;&gt;Is the diagram &lt;br&gt;composed &lt;br&gt;only by&amp;nbsp; the element &lt;br&gt;represented in the&lt;br&gt;&amp;nbsp;Figure 1.?&lt;/font&gt;" style="rhombus;whiteSpace=wrap;html=1;" parent="1" vertex="1">
          <mxGeometry x="922.5" y="1450" width="155" height="130" as="geometry" />
        </mxCell>
        <mxCell id="RJ92-mpKp_Qxyu-UwBLO-3" style="edgeStyle=orthogonalEdgeStyle;rounded=0;orthogonalLoop=1;jettySize=auto;html=1;entryX=0;entryY=0.5;entryDx=0;entryDy=0;exitX=1;exitY=0.5;exitDx=0;exitDy=0;" parent="1" source="YhcGkk3SxX0Eegf4gITG-1" target="YhcGkk3SxX0Eegf4gITG-2" edge="1">
          <mxGeometry relative="1" as="geometry">
            <mxPoint x="1140" y="5500" as="sourcePoint" />
          </mxGeometry>
        </mxCell>
        <mxCell id="UDX0wKx2XlwWkAEXpSnz-56" style="edgeStyle=orthogonalEdgeStyle;rounded=0;orthogonalLoop=1;jettySize=auto;html=1;entryX=0.5;entryY=0;entryDx=0;entryDy=0;" edge="1" parent="1" source="YhcGkk3SxX0Eegf4gITG-1" target="wKEA9NWrs45wdaXyvH4U-27">
          <mxGeometry relative="1" as="geometry" />
        </mxCell>
        <mxCell id="YhcGkk3SxX0Eegf4gITG-1" value="&lt;font style=&quot;font-size: 12px;&quot;&gt;Is the diagram composed &lt;br&gt;only by icons that indicate a type &lt;br&gt;of device such as firewalls, routers, &lt;br&gt;printers, hubs, switches, and other devices&lt;br&gt;&amp;nbsp;in home and office networks, &lt;br&gt;databases, IP addresses,&lt;br&gt;&amp;nbsp;connected &lt;br&gt;together by arrows??&lt;/font&gt;" style="rhombus;whiteSpace=wrap;html=1;" parent="1" vertex="1">
          <mxGeometry x="845.48" y="4480" width="311.88" height="200" as="geometry" />
        </mxCell>
        <mxCell id="rBs4OMWJi1LVRep2Ixkm-6" style="edgeStyle=orthogonalEdgeStyle;rounded=0;orthogonalLoop=1;jettySize=auto;html=1;" edge="1" parent="1" source="YhcGkk3SxX0Eegf4gITG-2">
          <mxGeometry relative="1" as="geometry">
            <mxPoint x="3104" y="2060" as="targetPoint" />
          </mxGeometry>
        </mxCell>
        <mxCell id="YhcGkk3SxX0Eegf4gITG-2" value="Network-Infrastracture diagram" style="rounded=1;whiteSpace=wrap;html=1;fillColor=#d5e8d4;strokeColor=#82b366;" parent="1" vertex="1">
          <mxGeometry x="1750" y="4550" width="120" height="60" as="geometry" />
        </mxCell>
        <mxCell id="YhcGkk3SxX0Eegf4gITG-3" value="NO" style="text;html=1;align=center;verticalAlign=middle;resizable=0;points=[];autosize=1;strokeColor=none;fillColor=none;" parent="1" vertex="1">
          <mxGeometry x="1000" y="1400" width="40" height="30" as="geometry" />
        </mxCell>
        <mxCell id="YhcGkk3SxX0Eegf4gITG-4" value="YES&lt;br&gt;" style="text;html=1;align=center;verticalAlign=middle;resizable=0;points=[];autosize=1;strokeColor=none;fillColor=none;" parent="1" vertex="1">
          <mxGeometry x="1105" y="1485" width="50" height="30" as="geometry" />
        </mxCell>
        <mxCell id="YhcGkk3SxX0Eegf4gITG-5" value="YES" style="text;html=1;align=center;verticalAlign=middle;resizable=0;points=[];autosize=1;strokeColor=none;fillColor=none;" parent="1" vertex="1">
          <mxGeometry x="1385" y="1485" width="50" height="30" as="geometry" />
        </mxCell>
        <mxCell id="RJ92-mpKp_Qxyu-UwBLO-4" value="YES" style="text;html=1;align=center;verticalAlign=middle;resizable=0;points=[];autosize=1;strokeColor=none;fillColor=none;" parent="1" vertex="1">
          <mxGeometry x="1115" y="4880" width="50" height="30" as="geometry" />
        </mxCell>
        <mxCell id="ZVimlMhgi4810i9OAvbK-2" style="edgeStyle=orthogonalEdgeStyle;rounded=0;orthogonalLoop=1;jettySize=auto;html=1;entryX=0.5;entryY=0;entryDx=0;entryDy=0;" parent="1" source="RJ92-mpKp_Qxyu-UwBLO-7" target="RJ92-mpKp_Qxyu-UwBLO-21" edge="1">
          <mxGeometry relative="1" as="geometry" />
        </mxCell>
        <mxCell id="RJ92-mpKp_Qxyu-UwBLO-7" value="Look and observe the notations used in the diagram" style="shape=cloud;whiteSpace=wrap;html=1;fillColor=#FFFFFF;" parent="1" vertex="1">
          <mxGeometry x="-225" y="515.5" width="150" height="115" as="geometry" />
        </mxCell>
        <mxCell id="RJ92-mpKp_Qxyu-UwBLO-16" value="This is not a diagram" style="html=1;dashed=0;whiteSpace=wrap;shape=mxgraph.dfd.start" parent="1" vertex="1">
          <mxGeometry x="-190.46999999999997" y="970" width="80" height="30" as="geometry" />
        </mxCell>
        <mxCell id="UDX0wKx2XlwWkAEXpSnz-50" style="edgeStyle=orthogonalEdgeStyle;rounded=0;orthogonalLoop=1;jettySize=auto;html=1;entryX=0;entryY=0.5;entryDx=0;entryDy=0;" edge="1" parent="1" source="RJ92-mpKp_Qxyu-UwBLO-21" target="UDX0wKx2XlwWkAEXpSnz-49">
          <mxGeometry relative="1" as="geometry" />
        </mxCell>
        <mxCell id="RJ92-mpKp_Qxyu-UwBLO-21" value="&lt;font style=&quot;font-size: 12px;&quot;&gt;Is the diagram composed of&lt;br&gt;&amp;nbsp;only one node or some edges?&lt;/font&gt;" style="rhombus;whiteSpace=wrap;html=1;" parent="1" vertex="1">
          <mxGeometry x="-260.93" y="708" width="220.93" height="170" as="geometry" />
        </mxCell>
        <mxCell id="2R_Mq-qP3hl-uTZaljwN-2" style="edgeStyle=orthogonalEdgeStyle;rounded=0;orthogonalLoop=1;jettySize=auto;html=1;entryX=0.5;entryY=0.5;entryDx=0;entryDy=-15;entryPerimeter=0;" parent="1" source="RJ92-mpKp_Qxyu-UwBLO-21" target="RJ92-mpKp_Qxyu-UwBLO-16" edge="1">
          <mxGeometry relative="1" as="geometry" />
        </mxCell>
        <mxCell id="2R_Mq-qP3hl-uTZaljwN-5" value="YES" style="text;html=1;align=center;verticalAlign=middle;resizable=0;points=[];autosize=1;strokeColor=none;fillColor=none;" parent="1" vertex="1">
          <mxGeometry x="-155" y="878" width="50" height="30" as="geometry" />
        </mxCell>
        <mxCell id="2R_Mq-qP3hl-uTZaljwN-6" value="NO" style="text;html=1;align=center;verticalAlign=middle;resizable=0;points=[];autosize=1;strokeColor=none;fillColor=none;" parent="1" vertex="1">
          <mxGeometry x="-40" y="760" width="40" height="30" as="geometry" />
        </mxCell>
        <mxCell id="P2aJrEbKzBuw7Wg_0Yq4-5" style="edgeStyle=orthogonalEdgeStyle;rounded=0;orthogonalLoop=1;jettySize=auto;html=1;entryX=0;entryY=0.5;entryDx=0;entryDy=0;" parent="1" source="P2aJrEbKzBuw7Wg_0Yq4-1" target="P2aJrEbKzBuw7Wg_0Yq4-6" edge="1">
          <mxGeometry relative="1" as="geometry">
            <mxPoint x="1193.12" y="1755" as="targetPoint" />
          </mxGeometry>
        </mxCell>
        <mxCell id="P2aJrEbKzBuw7Wg_0Yq4-9" style="edgeStyle=orthogonalEdgeStyle;rounded=0;orthogonalLoop=1;jettySize=auto;html=1;entryX=0.5;entryY=0;entryDx=0;entryDy=0;" parent="1" source="P2aJrEbKzBuw7Wg_0Yq4-1" target="P2aJrEbKzBuw7Wg_0Yq4-8" edge="1">
          <mxGeometry relative="1" as="geometry" />
        </mxCell>
        <mxCell id="P2aJrEbKzBuw7Wg_0Yq4-1" value="&lt;font style=&quot;font-size: 10px;&quot;&gt;Does the diagram follow&amp;nbsp;&lt;/font&gt;&lt;div&gt;&lt;font style=&quot;font-size: 10px;&quot;&gt;not strictly the UML notation in [C]&amp;nbsp;&lt;br&gt;&amp;nbsp;meaning that it includes other &lt;br&gt;notations&amp;nbsp;&lt;br&gt;not represented in [C]?&lt;/font&gt;&lt;/div&gt;" style="shape=rhombus;html=1;dashed=0;whiteSpace=wrap;perimeter=rhombusPerimeter;" parent="1" vertex="1">
          <mxGeometry x="902.19" y="1670" width="193.75" height="170" as="geometry" />
        </mxCell>
        <mxCell id="P2aJrEbKzBuw7Wg_0Yq4-3" value="NO" style="text;html=1;align=center;verticalAlign=middle;resizable=0;points=[];autosize=1;strokeColor=none;fillColor=none;" parent="1" vertex="1">
          <mxGeometry x="1000" y="1598" width="40" height="30" as="geometry" />
        </mxCell>
        <mxCell id="P2aJrEbKzBuw7Wg_0Yq4-6" value="Drawio Sequence diagram template" style="rounded=1;whiteSpace=wrap;html=1;fillColor=#d5e8d4;strokeColor=#82b366;" parent="1" vertex="1">
          <mxGeometry x="1480" y="1725" width="130" height="60" as="geometry" />
        </mxCell>
        <mxCell id="P2aJrEbKzBuw7Wg_0Yq4-7" value="YES" style="text;html=1;align=center;verticalAlign=middle;resizable=0;points=[];autosize=1;strokeColor=none;fillColor=none;" parent="1" vertex="1">
          <mxGeometry x="1125" y="1708" width="50" height="30" as="geometry" />
        </mxCell>
        <mxCell id="P2aJrEbKzBuw7Wg_0Yq4-12" style="edgeStyle=orthogonalEdgeStyle;rounded=0;orthogonalLoop=1;jettySize=auto;html=1;entryX=0;entryY=0.5;entryDx=0;entryDy=0;" parent="1" source="P2aJrEbKzBuw7Wg_0Yq4-8" target="P2aJrEbKzBuw7Wg_0Yq4-11" edge="1">
          <mxGeometry relative="1" as="geometry" />
        </mxCell>
        <mxCell id="P2aJrEbKzBuw7Wg_0Yq4-14" style="edgeStyle=orthogonalEdgeStyle;rounded=0;orthogonalLoop=1;jettySize=auto;html=1;entryX=0.5;entryY=0;entryDx=0;entryDy=0;" parent="1" source="P2aJrEbKzBuw7Wg_0Yq4-8" target="P2aJrEbKzBuw7Wg_0Yq4-13" edge="1">
          <mxGeometry relative="1" as="geometry" />
        </mxCell>
        <mxCell id="P2aJrEbKzBuw7Wg_0Yq4-8" value="&lt;font style=&quot;font-size: 12px;&quot;&gt;Does the diagram follow not&lt;br&gt;&amp;nbsp;strictly the UML notation in [A]&amp;nbsp;&lt;br&gt;&amp;nbsp;meaning that it includes other &lt;br&gt;notations&amp;nbsp;&lt;br&gt;not represented in [A]?&lt;/font&gt;" style="shape=rhombus;html=1;dashed=0;whiteSpace=wrap;perimeter=rhombusPerimeter;" parent="1" vertex="1">
          <mxGeometry x="865.01" y="1940" width="265.94" height="170" as="geometry" />
        </mxCell>
        <mxCell id="P2aJrEbKzBuw7Wg_0Yq4-10" value="NO" style="text;html=1;align=center;verticalAlign=middle;resizable=0;points=[];autosize=1;strokeColor=none;fillColor=none;" parent="1" vertex="1">
          <mxGeometry x="1008.21" y="1850" width="40" height="30" as="geometry" />
        </mxCell>
        <mxCell id="P2aJrEbKzBuw7Wg_0Yq4-11" value="Drawio Class diagram template" style="rounded=1;whiteSpace=wrap;html=1;fillColor=#d5e8d4;strokeColor=#82b366;" parent="1" vertex="1">
          <mxGeometry x="1505" y="1995" width="120" height="60" as="geometry" />
        </mxCell>
        <mxCell id="P2aJrEbKzBuw7Wg_0Yq4-16" style="edgeStyle=orthogonalEdgeStyle;rounded=0;orthogonalLoop=1;jettySize=auto;html=1;entryX=0;entryY=0.5;entryDx=0;entryDy=0;" parent="1" source="P2aJrEbKzBuw7Wg_0Yq4-13" target="P2aJrEbKzBuw7Wg_0Yq4-15" edge="1">
          <mxGeometry relative="1" as="geometry" />
        </mxCell>
        <mxCell id="UDX0wKx2XlwWkAEXpSnz-16" style="edgeStyle=orthogonalEdgeStyle;rounded=0;orthogonalLoop=1;jettySize=auto;html=1;entryX=0.5;entryY=0;entryDx=0;entryDy=0;" edge="1" parent="1" source="P2aJrEbKzBuw7Wg_0Yq4-13" target="UDX0wKx2XlwWkAEXpSnz-14">
          <mxGeometry relative="1" as="geometry" />
        </mxCell>
        <mxCell id="P2aJrEbKzBuw7Wg_0Yq4-13" value="&lt;font style=&quot;font-size: 12px;&quot;&gt;Does the diagram follow not&lt;br&gt;&amp;nbsp;strictly the UML notation in [D]&amp;nbsp;&lt;br&gt;&amp;nbsp;meaning that it includes other &lt;br&gt;notations&amp;nbsp;&lt;br&gt;not represented in [D]?&lt;/font&gt;" style="shape=rhombus;html=1;dashed=0;whiteSpace=wrap;perimeter=rhombusPerimeter;" parent="1" vertex="1">
          <mxGeometry x="875.48" y="2190" width="245" height="170" as="geometry" />
        </mxCell>
        <mxCell id="x6S1XF_horREQcLStKP8-52" style="edgeStyle=orthogonalEdgeStyle;rounded=0;orthogonalLoop=1;jettySize=auto;html=1;" parent="1" source="P2aJrEbKzBuw7Wg_0Yq4-15" target="x6S1XF_horREQcLStKP8-42" edge="1">
          <mxGeometry relative="1" as="geometry" />
        </mxCell>
        <mxCell id="P2aJrEbKzBuw7Wg_0Yq4-15" value="Drawio use case diagram&amp;nbsp;" style="rounded=1;whiteSpace=wrap;html=1;fillColor=#d5e8d4;strokeColor=#82b366;" parent="1" vertex="1">
          <mxGeometry x="1505" y="2245" width="120" height="60" as="geometry" />
        </mxCell>
        <mxCell id="P2aJrEbKzBuw7Wg_0Yq4-17" value="YES" style="text;html=1;align=center;verticalAlign=middle;resizable=0;points=[];autosize=1;strokeColor=none;fillColor=none;" parent="1" vertex="1">
          <mxGeometry x="1135" y="1968" width="50" height="30" as="geometry" />
        </mxCell>
        <mxCell id="P2aJrEbKzBuw7Wg_0Yq4-18" value="YES" style="text;html=1;align=center;verticalAlign=middle;resizable=0;points=[];autosize=1;strokeColor=none;fillColor=none;" parent="1" vertex="1">
          <mxGeometry x="1135" y="2228" width="50" height="30" as="geometry" />
        </mxCell>
        <mxCell id="P2aJrEbKzBuw7Wg_0Yq4-19" value="NO" style="text;html=1;align=center;verticalAlign=middle;resizable=0;points=[];autosize=1;strokeColor=none;fillColor=none;" parent="1" vertex="1">
          <mxGeometry x="1000" y="2090" width="40" height="30" as="geometry" />
        </mxCell>
        <mxCell id="-RkD-LNXKQ7K2pbzHxsS-5" value="NO" style="text;html=1;align=center;verticalAlign=middle;resizable=0;points=[];autosize=1;strokeColor=none;fillColor=none;" parent="1" vertex="1">
          <mxGeometry x="1000" y="2350" width="40" height="30" as="geometry" />
        </mxCell>
        <mxCell id="x6S1XF_horREQcLStKP8-9" style="edgeStyle=orthogonalEdgeStyle;rounded=0;orthogonalLoop=1;jettySize=auto;html=1;exitX=1;exitY=0.5;exitDx=0;exitDy=0;" parent="1" source="x6S1XF_horREQcLStKP8-6" edge="1">
          <mxGeometry relative="1" as="geometry">
            <mxPoint x="1780" y="1390" as="targetPoint" />
            <Array as="points">
              <mxPoint x="1610" y="1320" />
              <mxPoint x="1610" y="1391" />
            </Array>
          </mxGeometry>
        </mxCell>
        <mxCell id="x6S1XF_horREQcLStKP8-15" style="edgeStyle=orthogonalEdgeStyle;rounded=0;orthogonalLoop=1;jettySize=auto;html=1;" parent="1" source="x6S1XF_horREQcLStKP8-6" target="x6S1XF_horREQcLStKP8-12" edge="1">
          <mxGeometry relative="1" as="geometry">
            <Array as="points">
              <mxPoint x="1670" y="1290" />
              <mxPoint x="1670" y="1290" />
            </Array>
          </mxGeometry>
        </mxCell>
        <mxCell id="x6S1XF_horREQcLStKP8-6" value="Is the diagram&lt;br&gt;&amp;nbsp;divided into lanes where&lt;br&gt;&amp;nbsp;the steps are&amp;nbsp;grouped &lt;br&gt;by team&lt;br&gt;&amp;nbsp;responsibilities?" style="rhombus;whiteSpace=wrap;html=1;" parent="1" vertex="1">
          <mxGeometry x="1480" y="1250" width="155" height="140" as="geometry" />
        </mxCell>
        <mxCell id="x6S1XF_horREQcLStKP8-44" style="edgeStyle=orthogonalEdgeStyle;rounded=0;orthogonalLoop=1;jettySize=auto;html=1;" parent="1" source="x6S1XF_horREQcLStKP8-10" target="x6S1XF_horREQcLStKP8-42" edge="1">
          <mxGeometry relative="1" as="geometry" />
        </mxCell>
        <mxCell id="x6S1XF_horREQcLStKP8-10" value="Flowchart" style="rounded=1;whiteSpace=wrap;html=1;fillColor=#d5e8d4;strokeColor=#82b366;" parent="1" vertex="1">
          <mxGeometry x="1780" y="1360" width="120" height="60" as="geometry" />
        </mxCell>
        <mxCell id="x6S1XF_horREQcLStKP8-43" style="edgeStyle=orthogonalEdgeStyle;rounded=0;orthogonalLoop=1;jettySize=auto;html=1;entryX=0.5;entryY=0;entryDx=0;entryDy=0;" parent="1" source="x6S1XF_horREQcLStKP8-12" target="x6S1XF_horREQcLStKP8-42" edge="1">
          <mxGeometry relative="1" as="geometry" />
        </mxCell>
        <mxCell id="x6S1XF_horREQcLStKP8-12" value="Swimlane Flowchart diagram" style="rounded=1;whiteSpace=wrap;html=1;fillColor=#d5e8d4;strokeColor=#82b366;" parent="1" vertex="1">
          <mxGeometry x="1780" y="1260" width="120" height="60" as="geometry" />
        </mxCell>
        <mxCell id="x6S1XF_horREQcLStKP8-16" value="NO" style="text;html=1;align=center;verticalAlign=middle;resizable=0;points=[];autosize=1;strokeColor=none;fillColor=none;" parent="1" vertex="1">
          <mxGeometry x="1640" y="1358" width="40" height="30" as="geometry" />
        </mxCell>
        <mxCell id="x6S1XF_horREQcLStKP8-17" value="YES" style="text;html=1;align=center;verticalAlign=middle;resizable=0;points=[];autosize=1;strokeColor=none;fillColor=none;" parent="1" vertex="1">
          <mxGeometry x="1635" y="1268" width="50" height="30" as="geometry" />
        </mxCell>
        <mxCell id="UDX0wKx2XlwWkAEXpSnz-33" style="edgeStyle=orthogonalEdgeStyle;rounded=0;orthogonalLoop=1;jettySize=auto;html=1;" edge="1" parent="1" source="x6S1XF_horREQcLStKP8-18" target="x6S1XF_horREQcLStKP8-25">
          <mxGeometry relative="1" as="geometry" />
        </mxCell>
        <mxCell id="UDX0wKx2XlwWkAEXpSnz-38" style="edgeStyle=orthogonalEdgeStyle;rounded=0;orthogonalLoop=1;jettySize=auto;html=1;entryX=0.5;entryY=0;entryDx=0;entryDy=0;" edge="1" parent="1" source="x6S1XF_horREQcLStKP8-18" target="lXvLk1KNBLZ-ENr9Qjo7-1">
          <mxGeometry relative="1" as="geometry" />
        </mxCell>
        <mxCell id="x6S1XF_horREQcLStKP8-18" value="&lt;font style=&quot;font-size: 12px;&quot;&gt;Is the diagram composed of only ellipse/rectangle shapes and arrows in only a single direction?&amp;nbsp;&lt;/font&gt;" style="rhombus;whiteSpace=wrap;html=1;" parent="1" vertex="1">
          <mxGeometry x="887.6600000000001" y="2710" width="220.93" height="200" as="geometry" />
        </mxCell>
        <mxCell id="x6S1XF_horREQcLStKP8-23" value="YES" style="text;html=1;align=center;verticalAlign=middle;resizable=0;points=[];autosize=1;strokeColor=none;fillColor=none;" parent="1" vertex="1">
          <mxGeometry x="1108.59" y="2780" width="50" height="30" as="geometry" />
        </mxCell>
        <mxCell id="x6S1XF_horREQcLStKP8-24" value="Dependency diagram" style="rounded=1;whiteSpace=wrap;html=1;fillColor=#d5e8d4;strokeColor=#82b366;" parent="1" vertex="1">
          <mxGeometry x="1750" y="2780" width="120" height="60" as="geometry" />
        </mxCell>
        <mxCell id="x6S1XF_horREQcLStKP8-26" style="edgeStyle=orthogonalEdgeStyle;rounded=0;orthogonalLoop=1;jettySize=auto;html=1;entryX=0;entryY=0.5;entryDx=0;entryDy=0;" parent="1" source="x6S1XF_horREQcLStKP8-25" target="x6S1XF_horREQcLStKP8-24" edge="1">
          <mxGeometry relative="1" as="geometry" />
        </mxCell>
        <mxCell id="UDX0wKx2XlwWkAEXpSnz-34" style="edgeStyle=orthogonalEdgeStyle;rounded=0;orthogonalLoop=1;jettySize=auto;html=1;entryX=0.5;entryY=0;entryDx=0;entryDy=0;" edge="1" parent="1" source="x6S1XF_horREQcLStKP8-25" target="x6S1XF_horREQcLStKP8-18">
          <mxGeometry relative="1" as="geometry">
            <Array as="points">
              <mxPoint x="1461" y="2690" />
              <mxPoint x="998" y="2690" />
            </Array>
          </mxGeometry>
        </mxCell>
        <mxCell id="x6S1XF_horREQcLStKP8-25" value="&lt;font style=&quot;font-size: 12px;&quot;&gt;Is each of the next circle/ellipse/rectangle&lt;br&gt;&amp;nbsp;shape dependent on the previous shape?&lt;/font&gt;" style="rhombus;whiteSpace=wrap;html=1;" parent="1" vertex="1">
          <mxGeometry x="1350.0000000000002" y="2710" width="220.93" height="200" as="geometry" />
        </mxCell>
        <mxCell id="x6S1XF_horREQcLStKP8-27" value="YES" style="text;html=1;align=center;verticalAlign=middle;resizable=0;points=[];autosize=1;strokeColor=none;fillColor=none;" parent="1" vertex="1">
          <mxGeometry x="1584.28" y="2770" width="50" height="30" as="geometry" />
        </mxCell>
        <mxCell id="x6S1XF_horREQcLStKP8-36" value="Diagram without category" style="rounded=1;whiteSpace=wrap;html=1;fillColor=#d5e8d4;strokeColor=#82b366;" parent="1" vertex="1">
          <mxGeometry x="1690" y="5690" width="120" height="60" as="geometry" />
        </mxCell>
        <mxCell id="x6S1XF_horREQcLStKP8-41" value="&lt;font style=&quot;font-size: 24px;&quot;&gt;It shows the architecture of the system&lt;br&gt;ARCHITECTURE / STRUCTURE DIAGRAM&lt;/font&gt;" style="rounded=1;whiteSpace=wrap;html=1;fillColor=#3399FF;strokeColor=#82b366;" parent="1" vertex="1">
          <mxGeometry x="2990" y="1908" width="542" height="150" as="geometry" />
        </mxCell>
        <mxCell id="x6S1XF_horREQcLStKP8-42" value="&lt;font style=&quot;font-size: 24px;&quot;&gt;It shows the behavior of the system&lt;br&gt;BEHAVIOR DIAGRAM&lt;/font&gt;" style="rounded=1;whiteSpace=wrap;html=1;fillColor=#3399FF;strokeColor=#82b366;" parent="1" vertex="1">
          <mxGeometry x="2280" y="1650" width="658" height="150" as="geometry" />
        </mxCell>
        <mxCell id="x6S1XF_horREQcLStKP8-45" style="edgeStyle=orthogonalEdgeStyle;rounded=0;orthogonalLoop=1;jettySize=auto;html=1;entryX=0.009;entryY=0.705;entryDx=0;entryDy=0;entryPerimeter=0;" parent="1" source="P2aJrEbKzBuw7Wg_0Yq4-6" target="x6S1XF_horREQcLStKP8-42" edge="1">
          <mxGeometry relative="1" as="geometry" />
        </mxCell>
        <mxCell id="x6S1XF_horREQcLStKP8-51" style="edgeStyle=orthogonalEdgeStyle;rounded=0;orthogonalLoop=1;jettySize=auto;html=1;entryX=0.003;entryY=0.656;entryDx=0;entryDy=0;entryPerimeter=0;" parent="1" source="P2aJrEbKzBuw7Wg_0Yq4-11" target="x6S1XF_horREQcLStKP8-41" edge="1">
          <mxGeometry relative="1" as="geometry" />
        </mxCell>
        <mxCell id="x6S1XF_horREQcLStKP8-54" style="edgeStyle=orthogonalEdgeStyle;rounded=0;orthogonalLoop=1;jettySize=auto;html=1;entryX=0.387;entryY=1;entryDx=0;entryDy=0;entryPerimeter=0;exitX=1;exitY=0.5;exitDx=0;exitDy=0;" parent="1" source="x6S1XF_horREQcLStKP8-36" target="x6S1XF_horREQcLStKP8-41" edge="1">
          <mxGeometry relative="1" as="geometry">
            <mxPoint x="2208.5699999999997" y="5720" as="sourcePoint" />
          </mxGeometry>
        </mxCell>
        <mxCell id="x6S1XF_horREQcLStKP8-56" style="edgeStyle=orthogonalEdgeStyle;rounded=0;orthogonalLoop=1;jettySize=auto;html=1;entryX=0.728;entryY=0.998;entryDx=0;entryDy=0;entryPerimeter=0;" parent="1" source="x6S1XF_horREQcLStKP8-24" target="x6S1XF_horREQcLStKP8-41" edge="1">
          <mxGeometry relative="1" as="geometry" />
        </mxCell>
        <mxCell id="HIV6A7X4asPZg9ZUjG2q-14" value="YES" style="text;html=1;align=center;verticalAlign=middle;resizable=0;points=[];autosize=1;strokeColor=none;fillColor=none;" parent="1" vertex="1">
          <mxGeometry x="1515" y="758" width="50" height="30" as="geometry" />
        </mxCell>
        <mxCell id="HIV6A7X4asPZg9ZUjG2q-16" value="NO" style="text;html=1;align=center;verticalAlign=middle;resizable=0;points=[];autosize=1;strokeColor=none;fillColor=none;" parent="1" vertex="1">
          <mxGeometry x="1420" y="698" width="40" height="30" as="geometry" />
        </mxCell>
        <mxCell id="HIV6A7X4asPZg9ZUjG2q-18" value="NO" style="text;html=1;align=center;verticalAlign=middle;resizable=0;points=[];autosize=1;strokeColor=none;fillColor=none;" parent="1" vertex="1">
          <mxGeometry x="1420" y="238" width="40" height="30" as="geometry" />
        </mxCell>
        <mxCell id="HIV6A7X4asPZg9ZUjG2q-19" value="NO&lt;br&gt;" style="text;html=1;align=center;verticalAlign=middle;resizable=0;points=[];autosize=1;strokeColor=none;fillColor=none;" parent="1" vertex="1">
          <mxGeometry x="1420" y="400" width="40" height="30" as="geometry" />
        </mxCell>
        <mxCell id="HIV6A7X4asPZg9ZUjG2q-20" value="NO" style="text;html=1;align=center;verticalAlign=middle;resizable=0;points=[];autosize=1;strokeColor=none;fillColor=none;" parent="1" vertex="1">
          <mxGeometry x="1420" y="558" width="40" height="30" as="geometry" />
        </mxCell>
        <mxCell id="HIV6A7X4asPZg9ZUjG2q-23" value="YES" style="text;html=1;align=center;verticalAlign=middle;resizable=0;points=[];autosize=1;strokeColor=none;fillColor=none;" parent="1" vertex="1">
          <mxGeometry x="1505" y="448" width="50" height="30" as="geometry" />
        </mxCell>
        <mxCell id="HIV6A7X4asPZg9ZUjG2q-26" value="YES" style="text;html=1;align=center;verticalAlign=middle;resizable=0;points=[];autosize=1;strokeColor=none;fillColor=none;" parent="1" vertex="1">
          <mxGeometry x="1515" y="148" width="50" height="30" as="geometry" />
        </mxCell>
        <mxCell id="HIV6A7X4asPZg9ZUjG2q-28" style="edgeStyle=orthogonalEdgeStyle;rounded=0;orthogonalLoop=1;jettySize=auto;html=1;entryX=0.052;entryY=0.545;entryDx=0;entryDy=0;entryPerimeter=0;" parent="1" source="i2K-thLx9bkCnsyA0vhA-2" target="i2K-thLx9bkCnsyA0vhA-25" edge="1">
          <mxGeometry relative="1" as="geometry" />
        </mxCell>
        <mxCell id="UDX0wKx2XlwWkAEXpSnz-23" style="edgeStyle=orthogonalEdgeStyle;rounded=0;orthogonalLoop=1;jettySize=auto;html=1;entryX=0.088;entryY=0.733;entryDx=0;entryDy=0;entryPerimeter=0;" edge="1" parent="1" source="HIV6A7X4asPZg9ZUjG2q-30" target="ZVimlMhgi4810i9OAvbK-1">
          <mxGeometry relative="1" as="geometry">
            <Array as="points">
              <mxPoint x="-530" y="440" />
            </Array>
          </mxGeometry>
        </mxCell>
        <mxCell id="HIV6A7X4asPZg9ZUjG2q-30" value="How many?" style="shape=parallelogram;perimeter=parallelogramPerimeter;whiteSpace=wrap;html=1;fixedSize=1;fillColor=#FFFFFF;" parent="1" vertex="1">
          <mxGeometry x="-590" y="236.25" width="120" height="60" as="geometry" />
        </mxCell>
        <mxCell id="yZhDhwmxqZO9taKAHuWY-2" style="edgeStyle=orthogonalEdgeStyle;rounded=0;orthogonalLoop=1;jettySize=auto;html=1;entryX=0.669;entryY=0.004;entryDx=0;entryDy=0;entryPerimeter=0;" parent="1" source="lWT77cSxJRv39axQW5ry-43" target="x6S1XF_horREQcLStKP8-42" edge="1">
          <mxGeometry relative="1" as="geometry" />
        </mxCell>
        <mxCell id="yZhDhwmxqZO9taKAHuWY-9" style="edgeStyle=orthogonalEdgeStyle;rounded=0;orthogonalLoop=1;jettySize=auto;html=1;entryX=0.598;entryY=-0.025;entryDx=0;entryDy=0;entryPerimeter=0;" parent="1" source="lWT77cSxJRv39axQW5ry-47" target="x6S1XF_horREQcLStKP8-42" edge="1">
          <mxGeometry relative="1" as="geometry">
            <Array as="points">
              <mxPoint x="2673" y="326" />
            </Array>
          </mxGeometry>
        </mxCell>
        <mxCell id="yZhDhwmxqZO9taKAHuWY-10" style="edgeStyle=orthogonalEdgeStyle;rounded=0;orthogonalLoop=1;jettySize=auto;html=1;entryX=0.898;entryY=0.004;entryDx=0;entryDy=0;entryPerimeter=0;" parent="1" source="lWT77cSxJRv39axQW5ry-42" target="x6S1XF_horREQcLStKP8-42" edge="1">
          <mxGeometry relative="1" as="geometry">
            <Array as="points">
              <mxPoint x="2871" y="160" />
            </Array>
          </mxGeometry>
        </mxCell>
        <mxCell id="lXvLk1KNBLZ-ENr9Qjo7-5" style="edgeStyle=orthogonalEdgeStyle;rounded=0;orthogonalLoop=1;jettySize=auto;html=1;entryX=0;entryY=0.5;entryDx=0;entryDy=0;" parent="1" source="lXvLk1KNBLZ-ENr9Qjo7-1" target="lXvLk1KNBLZ-ENr9Qjo7-4" edge="1">
          <mxGeometry relative="1" as="geometry" />
        </mxCell>
        <mxCell id="Z7cA3AG0aduT1OIUlZ0C-2" style="edgeStyle=orthogonalEdgeStyle;rounded=0;orthogonalLoop=1;jettySize=auto;html=1;entryX=0.5;entryY=0;entryDx=0;entryDy=0;" parent="1" source="lXvLk1KNBLZ-ENr9Qjo7-1" target="Z7cA3AG0aduT1OIUlZ0C-1" edge="1">
          <mxGeometry relative="1" as="geometry" />
        </mxCell>
        <mxCell id="lXvLk1KNBLZ-ENr9Qjo7-1" value="&lt;font style=&quot;font-size: 12px;&quot;&gt;Does the diagram contain a subset&lt;br&gt;&amp;nbsp;that is copied at least once&lt;/font&gt;&lt;div&gt;&lt;font style=&quot;font-size: 12px;&quot;&gt;&amp;nbsp;in the same file?&amp;nbsp;&lt;/font&gt;&lt;/div&gt;" style="rhombus;whiteSpace=wrap;html=1;" parent="1" vertex="1">
          <mxGeometry x="887.6600000000001" y="3050" width="220.93" height="200" as="geometry" />
        </mxCell>
        <mxCell id="rBs4OMWJi1LVRep2Ixkm-7" style="edgeStyle=orthogonalEdgeStyle;rounded=0;orthogonalLoop=1;jettySize=auto;html=1;entryX=0.25;entryY=1;entryDx=0;entryDy=0;" edge="1" parent="1" source="lXvLk1KNBLZ-ENr9Qjo7-4" target="x6S1XF_horREQcLStKP8-42">
          <mxGeometry relative="1" as="geometry" />
        </mxCell>
        <mxCell id="lXvLk1KNBLZ-ENr9Qjo7-4" value="Algorithm" style="rounded=1;whiteSpace=wrap;html=1;fillColor=#d5e8d4;strokeColor=#82b366;" parent="1" vertex="1">
          <mxGeometry x="1800" y="3120" width="120" height="60" as="geometry" />
        </mxCell>
        <mxCell id="Z7cA3AG0aduT1OIUlZ0C-6" style="edgeStyle=orthogonalEdgeStyle;rounded=0;orthogonalLoop=1;jettySize=auto;html=1;" parent="1" source="Z7cA3AG0aduT1OIUlZ0C-1" target="Z7cA3AG0aduT1OIUlZ0C-5" edge="1">
          <mxGeometry relative="1" as="geometry" />
        </mxCell>
        <mxCell id="Z7cA3AG0aduT1OIUlZ0C-10" style="edgeStyle=orthogonalEdgeStyle;rounded=0;orthogonalLoop=1;jettySize=auto;html=1;" parent="1" source="Z7cA3AG0aduT1OIUlZ0C-1" target="Z7cA3AG0aduT1OIUlZ0C-9" edge="1">
          <mxGeometry relative="1" as="geometry" />
        </mxCell>
        <mxCell id="Z7cA3AG0aduT1OIUlZ0C-1" value="&lt;font style=&quot;font-size: 12px;&quot;&gt;Does the diagram contain any time&lt;/font&gt;&lt;div&gt;&lt;font style=&quot;font-size: 12px;&quot;&gt;&amp;nbsp;line, and blocks of interval?&lt;/font&gt;&lt;/div&gt;" style="rhombus;whiteSpace=wrap;html=1;" parent="1" vertex="1">
          <mxGeometry x="889.0600000000001" y="3368" width="220.93" height="200" as="geometry" />
        </mxCell>
        <mxCell id="Z7cA3AG0aduT1OIUlZ0C-4" value="NO" style="text;html=1;align=center;verticalAlign=middle;resizable=0;points=[];autosize=1;strokeColor=none;fillColor=none;" parent="1" vertex="1">
          <mxGeometry x="1008.21" y="3260" width="40" height="30" as="geometry" />
        </mxCell>
        <mxCell id="Z7cA3AG0aduT1OIUlZ0C-5" value="Timing diagram" style="rounded=1;whiteSpace=wrap;html=1;fillColor=#d5e8d4;strokeColor=#82b366;" parent="1" vertex="1">
          <mxGeometry x="1800" y="3438" width="120" height="60" as="geometry" />
        </mxCell>
        <mxCell id="Z7cA3AG0aduT1OIUlZ0C-7" value="YES" style="text;html=1;align=center;verticalAlign=middle;resizable=0;points=[];autosize=1;strokeColor=none;fillColor=none;" parent="1" vertex="1">
          <mxGeometry x="1115" y="3438" width="50" height="30" as="geometry" />
        </mxCell>
        <mxCell id="wKEA9NWrs45wdaXyvH4U-4" style="edgeStyle=orthogonalEdgeStyle;rounded=0;orthogonalLoop=1;jettySize=auto;html=1;entryX=0.5;entryY=0;entryDx=0;entryDy=0;" parent="1" source="Z7cA3AG0aduT1OIUlZ0C-9" edge="1">
          <mxGeometry relative="1" as="geometry">
            <mxPoint x="1000.4750000000004" y="4060" as="targetPoint" />
          </mxGeometry>
        </mxCell>
        <mxCell id="UDX0wKx2XlwWkAEXpSnz-44" style="edgeStyle=orthogonalEdgeStyle;rounded=0;orthogonalLoop=1;jettySize=auto;html=1;entryX=0;entryY=0.5;entryDx=0;entryDy=0;" edge="1" parent="1" source="Z7cA3AG0aduT1OIUlZ0C-9" target="Z7cA3AG0aduT1OIUlZ0C-14">
          <mxGeometry relative="1" as="geometry" />
        </mxCell>
        <mxCell id="Z7cA3AG0aduT1OIUlZ0C-9" value="&lt;font style=&quot;font-size: 12px;&quot;&gt;Is the diagram composed of a&amp;nbsp;&lt;/font&gt;&lt;div&gt;&lt;font style=&quot;font-size: 12px;&quot;&gt;single&lt;/font&gt;&lt;div&gt;&lt;font style=&quot;font-size: 12px;&quot;&gt;&amp;nbsp;root node from which all the&lt;/font&gt;&lt;/div&gt;&lt;div&gt;&lt;font style=&quot;font-size: 12px;&quot;&gt;&amp;nbsp;other nodes are descended?&lt;/font&gt;&lt;/div&gt;&lt;/div&gt;" style="rhombus;whiteSpace=wrap;html=1;" parent="1" vertex="1">
          <mxGeometry x="890.0100000000001" y="3730" width="220.93" height="200" as="geometry" />
        </mxCell>
        <mxCell id="Z7cA3AG0aduT1OIUlZ0C-11" value="NO" style="text;html=1;align=center;verticalAlign=middle;resizable=0;points=[];autosize=1;strokeColor=none;fillColor=none;" parent="1" vertex="1">
          <mxGeometry x="1008.21" y="3580" width="40" height="30" as="geometry" />
        </mxCell>
        <mxCell id="rBs4OMWJi1LVRep2Ixkm-12" style="edgeStyle=orthogonalEdgeStyle;rounded=0;orthogonalLoop=1;jettySize=auto;html=1;" edge="1" parent="1" source="Z7cA3AG0aduT1OIUlZ0C-14">
          <mxGeometry relative="1" as="geometry">
            <mxPoint x="3078" y="2060" as="targetPoint" />
          </mxGeometry>
        </mxCell>
        <mxCell id="Z7cA3AG0aduT1OIUlZ0C-14" value="Tree diagram" style="rounded=1;whiteSpace=wrap;html=1;fillColor=#d5e8d4;strokeColor=#82b366;" parent="1" vertex="1">
          <mxGeometry x="1740" y="3800" width="120" height="60" as="geometry" />
        </mxCell>
        <mxCell id="wKEA9NWrs45wdaXyvH4U-13" style="edgeStyle=orthogonalEdgeStyle;rounded=0;orthogonalLoop=1;jettySize=auto;html=1;entryX=0;entryY=0.5;entryDx=0;entryDy=0;" parent="1" source="Z7cA3AG0aduT1OIUlZ0C-15" target="Z7cA3AG0aduT1OIUlZ0C-16" edge="1">
          <mxGeometry relative="1" as="geometry" />
        </mxCell>
        <mxCell id="wKEA9NWrs45wdaXyvH4U-17" style="edgeStyle=orthogonalEdgeStyle;rounded=0;orthogonalLoop=1;jettySize=auto;html=1;entryX=0.5;entryY=0;entryDx=0;entryDy=0;" parent="1" source="Z7cA3AG0aduT1OIUlZ0C-15" target="YhcGkk3SxX0Eegf4gITG-1" edge="1">
          <mxGeometry relative="1" as="geometry" />
        </mxCell>
        <mxCell id="Z7cA3AG0aduT1OIUlZ0C-15" value="&lt;font style=&quot;font-size: 12px;&quot;&gt;Is the diagram composed of the&lt;/font&gt;&lt;div&gt;&lt;font style=&quot;font-size: 12px;&quot;&gt;&amp;nbsp;AWS shapes available in&amp;nbsp;&lt;/font&gt;&lt;/div&gt;&lt;div&gt;&lt;font style=&quot;font-size: 12px;&quot;&gt;AWS libraries [X] ?&lt;/font&gt;&lt;/div&gt;" style="rhombus;whiteSpace=wrap;html=1;" parent="1" vertex="1">
          <mxGeometry x="890.01" y="4060" width="220.93" height="200" as="geometry" />
        </mxCell>
        <mxCell id="Z7cA3AG0aduT1OIUlZ0C-16" value="AWS diagram" style="rounded=1;whiteSpace=wrap;html=1;fillColor=#d5e8d4;strokeColor=#82b366;" parent="1" vertex="1">
          <mxGeometry x="1747.5" y="4130" width="120" height="60" as="geometry" />
        </mxCell>
        <mxCell id="Z7cA3AG0aduT1OIUlZ0C-25" value="YES" style="text;html=1;align=center;verticalAlign=middle;resizable=0;points=[];autosize=1;strokeColor=none;fillColor=none;" parent="1" vertex="1">
          <mxGeometry x="1115" y="3790" width="50" height="30" as="geometry" />
        </mxCell>
        <mxCell id="Z7cA3AG0aduT1OIUlZ0C-26" value="NO" style="text;html=1;align=center;verticalAlign=middle;resizable=0;points=[];autosize=1;strokeColor=none;fillColor=none;" parent="1" vertex="1">
          <mxGeometry x="1000" y="3930" width="40" height="30" as="geometry" />
        </mxCell>
        <mxCell id="Z7cA3AG0aduT1OIUlZ0C-27" value="YES" style="text;html=1;align=center;verticalAlign=middle;resizable=0;points=[];autosize=1;strokeColor=none;fillColor=none;" parent="1" vertex="1">
          <mxGeometry x="1135" y="4520" width="50" height="30" as="geometry" />
        </mxCell>
        <mxCell id="wKEA9NWrs45wdaXyvH4U-16" value="YES" style="text;html=1;align=center;verticalAlign=middle;resizable=0;points=[];autosize=1;strokeColor=none;fillColor=none;" parent="1" vertex="1">
          <mxGeometry x="1135" y="4130" width="50" height="30" as="geometry" />
        </mxCell>
        <mxCell id="wKEA9NWrs45wdaXyvH4U-18" value="NO" style="text;html=1;align=center;verticalAlign=middle;resizable=0;points=[];autosize=1;strokeColor=none;fillColor=none;" parent="1" vertex="1">
          <mxGeometry x="1000" y="4270" width="40" height="30" as="geometry" />
        </mxCell>
        <mxCell id="wKEA9NWrs45wdaXyvH4U-25" value="NO&lt;br&gt;" style="text;html=1;align=center;verticalAlign=middle;resizable=0;points=[];autosize=1;strokeColor=none;fillColor=none;" parent="1" vertex="1">
          <mxGeometry x="1000" y="5020" width="40" height="30" as="geometry" />
        </mxCell>
        <mxCell id="rBs4OMWJi1LVRep2Ixkm-9" style="edgeStyle=orthogonalEdgeStyle;rounded=0;orthogonalLoop=1;jettySize=auto;html=1;entryX=0.5;entryY=1;entryDx=0;entryDy=0;" edge="1" parent="1" source="wKEA9NWrs45wdaXyvH4U-26" target="x6S1XF_horREQcLStKP8-41">
          <mxGeometry relative="1" as="geometry" />
        </mxCell>
        <mxCell id="wKEA9NWrs45wdaXyvH4U-26" value="Matrix" style="rounded=1;whiteSpace=wrap;html=1;fillColor=#d5e8d4;strokeColor=#82b366;" parent="1" vertex="1">
          <mxGeometry x="1690" y="4880" width="120" height="60" as="geometry" />
        </mxCell>
        <mxCell id="wKEA9NWrs45wdaXyvH4U-35" style="edgeStyle=orthogonalEdgeStyle;rounded=0;orthogonalLoop=1;jettySize=auto;html=1;" parent="1" source="wKEA9NWrs45wdaXyvH4U-27" target="wKEA9NWrs45wdaXyvH4U-34" edge="1">
          <mxGeometry relative="1" as="geometry" />
        </mxCell>
        <mxCell id="UDX0wKx2XlwWkAEXpSnz-57" style="edgeStyle=orthogonalEdgeStyle;rounded=0;orthogonalLoop=1;jettySize=auto;html=1;" edge="1" parent="1" source="wKEA9NWrs45wdaXyvH4U-27" target="wKEA9NWrs45wdaXyvH4U-26">
          <mxGeometry relative="1" as="geometry" />
        </mxCell>
        <mxCell id="wKEA9NWrs45wdaXyvH4U-27" value="Is the diagram organized in a set&lt;div&gt;&amp;nbsp;of rows and columns, in a table&lt;/div&gt;&lt;div&gt;&amp;nbsp;format?&lt;/div&gt;" style="rhombus;whiteSpace=wrap;html=1;" parent="1" vertex="1">
          <mxGeometry x="890.9599999999999" y="4810" width="220.93" height="200" as="geometry" />
        </mxCell>
        <mxCell id="rBs4OMWJi1LVRep2Ixkm-3" style="edgeStyle=orthogonalEdgeStyle;rounded=0;orthogonalLoop=1;jettySize=auto;html=1;" edge="1" parent="1" source="wKEA9NWrs45wdaXyvH4U-33">
          <mxGeometry relative="1" as="geometry">
            <mxPoint x="2650" y="1810" as="targetPoint" />
          </mxGeometry>
        </mxCell>
        <mxCell id="wKEA9NWrs45wdaXyvH4U-33" value="Cartesian Diagram" style="rounded=1;whiteSpace=wrap;html=1;fillColor=#d5e8d4;strokeColor=#82b366;" parent="1" vertex="1">
          <mxGeometry x="1680" y="5300" width="120" height="60" as="geometry" />
        </mxCell>
        <mxCell id="ZVimlMhgi4810i9OAvbK-11" style="edgeStyle=orthogonalEdgeStyle;rounded=0;orthogonalLoop=1;jettySize=auto;html=1;entryX=0.5;entryY=0;entryDx=0;entryDy=0;" parent="1" source="wKEA9NWrs45wdaXyvH4U-34" target="ZVimlMhgi4810i9OAvbK-9" edge="1">
          <mxGeometry relative="1" as="geometry" />
        </mxCell>
        <mxCell id="UDX0wKx2XlwWkAEXpSnz-60" style="edgeStyle=orthogonalEdgeStyle;rounded=0;orthogonalLoop=1;jettySize=auto;html=1;" edge="1" parent="1" source="wKEA9NWrs45wdaXyvH4U-34" target="wKEA9NWrs45wdaXyvH4U-33">
          <mxGeometry relative="1" as="geometry" />
        </mxCell>
        <mxCell id="wKEA9NWrs45wdaXyvH4U-34" value="Does the diagram contain a&lt;div&gt;&amp;nbsp;cartesian coordinate system&amp;nbsp;&lt;/div&gt;&lt;div&gt;which is formed by the intersection&amp;nbsp;&lt;/div&gt;&lt;div&gt;of x-axis and y-axis?&lt;/div&gt;" style="rhombus;whiteSpace=wrap;html=1;" parent="1" vertex="1">
          <mxGeometry x="890.0099999999999" y="5230" width="220.93" height="200" as="geometry" />
        </mxCell>
        <mxCell id="ZVimlMhgi4810i9OAvbK-1" value="Look and observe the&amp;nbsp;&lt;br&gt;title of the diagram named&lt;br&gt;from the author.&amp;nbsp;&lt;br&gt;It may help you to define&lt;br&gt;what type of diagram is it, and its&lt;br&gt;&amp;nbsp;purpose (architecture/ behavior diagram)" style="shape=cloud;whiteSpace=wrap;html=1;fillColor=#FFFFFF;" parent="1" vertex="1">
          <mxGeometry x="-285" y="330" width="285" height="150" as="geometry" />
        </mxCell>
        <mxCell id="rBs4OMWJi1LVRep2Ixkm-10" style="edgeStyle=orthogonalEdgeStyle;rounded=0;orthogonalLoop=1;jettySize=auto;html=1;entryX=0;entryY=0.5;entryDx=0;entryDy=0;" edge="1" parent="1" source="ZVimlMhgi4810i9OAvbK-9" target="RJ92-mpKp_Qxyu-UwBLO-21">
          <mxGeometry relative="1" as="geometry" />
        </mxCell>
        <mxCell id="UDX0wKx2XlwWkAEXpSnz-63" style="edgeStyle=orthogonalEdgeStyle;rounded=0;orthogonalLoop=1;jettySize=auto;html=1;entryX=0;entryY=0.5;entryDx=0;entryDy=0;" edge="1" parent="1" source="ZVimlMhgi4810i9OAvbK-9" target="x6S1XF_horREQcLStKP8-36">
          <mxGeometry relative="1" as="geometry" />
        </mxCell>
        <mxCell id="ZVimlMhgi4810i9OAvbK-9" value="&lt;br&gt;&lt;span style=&quot;color: rgb(0, 0, 0); font-family: Helvetica; font-size: 12px; font-style: normal; font-variant-ligatures: normal; font-variant-caps: normal; font-weight: 400; letter-spacing: normal; orphans: 2; text-align: center; text-indent: 0px; text-transform: none; widows: 2; word-spacing: 0px; -webkit-text-stroke-width: 0px; white-space: normal; background-color: rgb(251, 251, 251); text-decoration-thickness: initial; text-decoration-style: initial; text-decoration-color: initial; display: inline !important; float: none;&quot;&gt;The diagram is composed by&amp;nbsp;&lt;/span&gt;&lt;div&gt;&lt;span style=&quot;color: rgb(0, 0, 0); font-family: Helvetica; font-size: 12px; font-style: normal; font-variant-ligatures: normal; font-variant-caps: normal; font-weight: 400; letter-spacing: normal; orphans: 2; text-align: center; text-indent: 0px; text-transform: none; widows: 2; word-spacing: 0px; -webkit-text-stroke-width: 0px; white-space: normal; background-color: rgb(251, 251, 251); text-decoration-thickness: initial; text-decoration-style: initial; text-decoration-color: initial; display: inline !important; float: none;&quot;&gt;using a mix of different type of&amp;nbsp;&lt;/span&gt;&lt;/div&gt;&lt;div&gt;&lt;span style=&quot;color: rgb(0, 0, 0); font-family: Helvetica; font-size: 12px; font-style: normal; font-variant-ligatures: normal; font-variant-caps: normal; font-weight: 400; letter-spacing: normal; orphans: 2; text-align: center; text-indent: 0px; text-transform: none; widows: 2; word-spacing: 0px; -webkit-text-stroke-width: 0px; white-space: normal; background-color: rgb(251, 251, 251); text-decoration-thickness: initial; text-decoration-style: initial; text-decoration-color: initial; display: inline !important; float: none;&quot;&gt;notations, created by using new&amp;nbsp;&lt;/span&gt;&lt;/div&gt;&lt;div&gt;&lt;span style=&quot;color: rgb(0, 0, 0); font-family: Helvetica; font-size: 12px; font-style: normal; font-variant-ligatures: normal; font-variant-caps: normal; font-weight: 400; letter-spacing: normal; orphans: 2; text-align: center; text-indent: 0px; text-transform: none; widows: 2; word-spacing: 0px; -webkit-text-stroke-width: 0px; white-space: normal; background-color: rgb(251, 251, 251); text-decoration-thickness: initial; text-decoration-style: initial; text-decoration-color: initial; display: inline !important; float: none;&quot;&gt;blank template in Drawio&lt;/span&gt;&lt;br&gt;&lt;br&gt;&lt;/div&gt;" style="rhombus;whiteSpace=wrap;html=1;" parent="1" vertex="1">
          <mxGeometry x="890.9499999999999" y="5620" width="220.93" height="200" as="geometry" />
        </mxCell>
        <mxCell id="ZVimlMhgi4810i9OAvbK-13" value="NO" style="text;html=1;align=center;verticalAlign=middle;resizable=0;points=[];autosize=1;strokeColor=none;fillColor=none;" parent="1" vertex="1">
          <mxGeometry x="1000" y="5430" width="40" height="30" as="geometry" />
        </mxCell>
        <mxCell id="rBs4OMWJi1LVRep2Ixkm-4" style="edgeStyle=orthogonalEdgeStyle;rounded=0;orthogonalLoop=1;jettySize=auto;html=1;entryX=0.407;entryY=1.018;entryDx=0;entryDy=0;entryPerimeter=0;" edge="1" parent="1" source="Z7cA3AG0aduT1OIUlZ0C-16" target="x6S1XF_horREQcLStKP8-42">
          <mxGeometry relative="1" as="geometry" />
        </mxCell>
        <mxCell id="rBs4OMWJi1LVRep2Ixkm-5" style="edgeStyle=orthogonalEdgeStyle;rounded=0;orthogonalLoop=1;jettySize=auto;html=1;entryX=0.09;entryY=1.004;entryDx=0;entryDy=0;entryPerimeter=0;" edge="1" parent="1" source="Z7cA3AG0aduT1OIUlZ0C-16" target="x6S1XF_horREQcLStKP8-41">
          <mxGeometry relative="1" as="geometry" />
        </mxCell>
        <mxCell id="rBs4OMWJi1LVRep2Ixkm-8" style="edgeStyle=orthogonalEdgeStyle;rounded=0;orthogonalLoop=1;jettySize=auto;html=1;entryX=0.319;entryY=1;entryDx=0;entryDy=0;entryPerimeter=0;" edge="1" parent="1" source="Z7cA3AG0aduT1OIUlZ0C-5" target="x6S1XF_horREQcLStKP8-42">
          <mxGeometry relative="1" as="geometry" />
        </mxCell>
        <mxCell id="rBs4OMWJi1LVRep2Ixkm-16" value="NO" style="text;html=1;align=center;verticalAlign=middle;resizable=0;points=[];autosize=1;strokeColor=none;fillColor=none;" vertex="1" parent="1">
          <mxGeometry x="1299.53" y="1430" width="40" height="30" as="geometry" />
        </mxCell>
        <mxCell id="rBs4OMWJi1LVRep2Ixkm-20" value="NO" style="text;html=1;align=center;verticalAlign=middle;resizable=0;points=[];autosize=1;strokeColor=none;fillColor=none;" vertex="1" parent="1">
          <mxGeometry x="1000" y="2590" width="40" height="30" as="geometry" />
        </mxCell>
        <mxCell id="UDX0wKx2XlwWkAEXpSnz-4" style="edgeStyle=orthogonalEdgeStyle;rounded=0;orthogonalLoop=1;jettySize=auto;html=1;entryX=0;entryY=0.5;entryDx=0;entryDy=0;" edge="1" parent="1" source="UDX0wKx2XlwWkAEXpSnz-1" target="UDX0wKx2XlwWkAEXpSnz-2">
          <mxGeometry relative="1" as="geometry" />
        </mxCell>
        <mxCell id="UDX0wKx2XlwWkAEXpSnz-29" style="edgeStyle=orthogonalEdgeStyle;rounded=0;orthogonalLoop=1;jettySize=auto;html=1;entryX=0.5;entryY=0;entryDx=0;entryDy=0;" edge="1" parent="1" source="UDX0wKx2XlwWkAEXpSnz-1" target="i2K-thLx9bkCnsyA0vhA-2">
          <mxGeometry relative="1" as="geometry" />
        </mxCell>
        <mxCell id="UDX0wKx2XlwWkAEXpSnz-1" value="Is the diagram &lt;br&gt;composed by only the notation &lt;br&gt;represented in [F]?" style="rhombus;whiteSpace=wrap;html=1;" vertex="1" parent="1">
          <mxGeometry x="1324.28" y="-10" width="190" height="90" as="geometry" />
        </mxCell>
        <mxCell id="UDX0wKx2XlwWkAEXpSnz-13" style="edgeStyle=orthogonalEdgeStyle;rounded=0;orthogonalLoop=1;jettySize=auto;html=1;entryX=0.25;entryY=0;entryDx=0;entryDy=0;" edge="1" parent="1" source="UDX0wKx2XlwWkAEXpSnz-2" target="x6S1XF_horREQcLStKP8-41">
          <mxGeometry relative="1" as="geometry" />
        </mxCell>
        <mxCell id="UDX0wKx2XlwWkAEXpSnz-2" value="UML Component diagram" style="rounded=1;whiteSpace=wrap;html=1;fillColor=#d5e8d4;strokeColor=#82b366;" vertex="1" parent="1">
          <mxGeometry x="2170" y="5" width="120" height="60" as="geometry" />
        </mxCell>
        <mxCell id="UDX0wKx2XlwWkAEXpSnz-3" value="Drawio component diagram&amp;nbsp;" style="rounded=1;whiteSpace=wrap;html=1;fillColor=#d5e8d4;strokeColor=#82b366;" vertex="1" parent="1">
          <mxGeometry x="1497.5" y="2450" width="120" height="60" as="geometry" />
        </mxCell>
        <mxCell id="UDX0wKx2XlwWkAEXpSnz-6" value="YES" style="text;html=1;align=center;verticalAlign=middle;resizable=0;points=[];autosize=1;strokeColor=none;fillColor=none;" vertex="1" parent="1">
          <mxGeometry x="1505" width="50" height="30" as="geometry" />
        </mxCell>
        <mxCell id="UDX0wKx2XlwWkAEXpSnz-7" value="NO" style="text;html=1;align=center;verticalAlign=middle;resizable=0;points=[];autosize=1;strokeColor=none;fillColor=none;" vertex="1" parent="1">
          <mxGeometry x="1280" y="5" width="40" height="30" as="geometry" />
        </mxCell>
        <mxCell id="UDX0wKx2XlwWkAEXpSnz-15" style="edgeStyle=orthogonalEdgeStyle;rounded=0;orthogonalLoop=1;jettySize=auto;html=1;entryX=0;entryY=0.75;entryDx=0;entryDy=0;" edge="1" parent="1" source="UDX0wKx2XlwWkAEXpSnz-14" target="UDX0wKx2XlwWkAEXpSnz-3">
          <mxGeometry relative="1" as="geometry" />
        </mxCell>
        <mxCell id="UDX0wKx2XlwWkAEXpSnz-20" style="edgeStyle=orthogonalEdgeStyle;rounded=0;orthogonalLoop=1;jettySize=auto;html=1;entryX=0.498;entryY=0;entryDx=0;entryDy=0;entryPerimeter=0;" edge="1" parent="1" source="UDX0wKx2XlwWkAEXpSnz-14" target="x6S1XF_horREQcLStKP8-18">
          <mxGeometry relative="1" as="geometry">
            <mxPoint x="998.125" y="2920" as="targetPoint" />
          </mxGeometry>
        </mxCell>
        <mxCell id="UDX0wKx2XlwWkAEXpSnz-14" value="&lt;font style=&quot;font-size: 12px;&quot;&gt;Does the diagram follow not&lt;br&gt;&amp;nbsp;strictly the UML notation in [F]&amp;nbsp;&lt;br&gt;&amp;nbsp;meaning that it includes other &lt;br&gt;notations&amp;nbsp;&lt;br&gt;not represented in [F]?&lt;/font&gt;" style="shape=rhombus;html=1;dashed=0;whiteSpace=wrap;perimeter=rhombusPerimeter;" vertex="1" parent="1">
          <mxGeometry x="875.48" y="2410" width="245" height="170" as="geometry" />
        </mxCell>
        <mxCell id="UDX0wKx2XlwWkAEXpSnz-17" value="YES" style="text;html=1;align=center;verticalAlign=middle;resizable=0;points=[];autosize=1;strokeColor=none;fillColor=none;" vertex="1" parent="1">
          <mxGeometry x="1110.94" y="2460" width="50" height="30" as="geometry" />
        </mxCell>
        <mxCell id="UDX0wKx2XlwWkAEXpSnz-18" style="edgeStyle=orthogonalEdgeStyle;rounded=0;orthogonalLoop=1;jettySize=auto;html=1;entryX=0.775;entryY=1;entryDx=0;entryDy=0;entryPerimeter=0;" edge="1" parent="1" source="UDX0wKx2XlwWkAEXpSnz-3" target="x6S1XF_horREQcLStKP8-42">
          <mxGeometry relative="1" as="geometry" />
        </mxCell>
        <mxCell id="UDX0wKx2XlwWkAEXpSnz-25" style="edgeStyle=orthogonalEdgeStyle;rounded=0;orthogonalLoop=1;jettySize=auto;html=1;entryX=0.96;entryY=0.7;entryDx=0;entryDy=0;entryPerimeter=0;" edge="1" parent="1" source="lWT77cSxJRv39axQW5ry-25" target="ZVimlMhgi4810i9OAvbK-1">
          <mxGeometry relative="1" as="geometry">
            <Array as="points">
              <mxPoint x="40" y="435" />
            </Array>
          </mxGeometry>
        </mxCell>
        <mxCell id="UDX0wKx2XlwWkAEXpSnz-27" style="edgeStyle=orthogonalEdgeStyle;rounded=0;orthogonalLoop=1;jettySize=auto;html=1;entryX=0.536;entryY=0.102;entryDx=0;entryDy=0;entryPerimeter=0;" edge="1" parent="1" source="ZVimlMhgi4810i9OAvbK-1" target="RJ92-mpKp_Qxyu-UwBLO-7">
          <mxGeometry relative="1" as="geometry">
            <Array as="points">
              <mxPoint x="-145" y="480" />
              <mxPoint x="-145" y="480" />
            </Array>
          </mxGeometry>
        </mxCell>
        <mxCell id="UDX0wKx2XlwWkAEXpSnz-35" value="NO" style="text;html=1;align=center;verticalAlign=middle;resizable=0;points=[];autosize=1;strokeColor=none;fillColor=none;" vertex="1" parent="1">
          <mxGeometry x="1457.5" y="2680" width="40" height="30" as="geometry" />
        </mxCell>
        <mxCell id="UDX0wKx2XlwWkAEXpSnz-39" value="YES" style="text;html=1;align=center;verticalAlign=middle;resizable=0;points=[];autosize=1;strokeColor=none;fillColor=none;" vertex="1" parent="1">
          <mxGeometry x="1135" y="3108" width="50" height="30" as="geometry" />
        </mxCell>
        <mxCell id="UDX0wKx2XlwWkAEXpSnz-40" value="NO" style="text;html=1;align=center;verticalAlign=middle;resizable=0;points=[];autosize=1;strokeColor=none;fillColor=none;" vertex="1" parent="1">
          <mxGeometry x="1020" y="2918" width="40" height="30" as="geometry" />
        </mxCell>
        <mxCell id="UDX0wKx2XlwWkAEXpSnz-47" value="NO" style="text;html=1;align=center;verticalAlign=middle;resizable=0;points=[];autosize=1;strokeColor=none;fillColor=none;" vertex="1" parent="1">
          <mxGeometry x="1000" y="4670" width="40" height="30" as="geometry" />
        </mxCell>
        <mxCell id="UDX0wKx2XlwWkAEXpSnz-51" style="edgeStyle=orthogonalEdgeStyle;rounded=0;orthogonalLoop=1;jettySize=auto;html=1;entryX=0;entryY=0.5;entryDx=0;entryDy=0;" edge="1" parent="1" source="UDX0wKx2XlwWkAEXpSnz-49" target="i2K-thLx9bkCnsyA0vhA-2">
          <mxGeometry relative="1" as="geometry" />
        </mxCell>
        <mxCell id="UDX0wKx2XlwWkAEXpSnz-49" value="&lt;font style=&quot;font-size: 12px;&quot;&gt;Does the diagram contain any&lt;br&gt;&amp;nbsp;image o emoji?&lt;/font&gt;" style="rhombus;whiteSpace=wrap;html=1;" vertex="1" parent="1">
          <mxGeometry x="270" y="693" width="221.87" height="200" as="geometry" />
        </mxCell>
        <mxCell id="UDX0wKx2XlwWkAEXpSnz-52" style="edgeStyle=orthogonalEdgeStyle;rounded=0;orthogonalLoop=1;jettySize=auto;html=1;entryX=1;entryY=0.5;entryDx=0;entryDy=0;entryPerimeter=0;" edge="1" parent="1" source="UDX0wKx2XlwWkAEXpSnz-49" target="RJ92-mpKp_Qxyu-UwBLO-16">
          <mxGeometry relative="1" as="geometry">
            <Array as="points">
              <mxPoint x="381" y="985" />
            </Array>
          </mxGeometry>
        </mxCell>
        <mxCell id="UDX0wKx2XlwWkAEXpSnz-53" value="NO" style="text;html=1;align=center;verticalAlign=middle;resizable=0;points=[];autosize=1;strokeColor=none;fillColor=none;" vertex="1" parent="1">
          <mxGeometry x="500" y="758" width="40" height="30" as="geometry" />
        </mxCell>
        <mxCell id="UDX0wKx2XlwWkAEXpSnz-54" value="YES" style="text;html=1;align=center;verticalAlign=middle;resizable=0;points=[];autosize=1;strokeColor=none;fillColor=none;" vertex="1" parent="1">
          <mxGeometry x="385" y="878" width="50" height="30" as="geometry" />
        </mxCell>
        <mxCell id="UDX0wKx2XlwWkAEXpSnz-61" value="YES" style="text;html=1;align=center;verticalAlign=middle;resizable=0;points=[];autosize=1;strokeColor=none;fillColor=none;" vertex="1" parent="1">
          <mxGeometry x="1115" y="5690" width="50" height="30" as="geometry" />
        </mxCell>
        <mxCell id="UDX0wKx2XlwWkAEXpSnz-62" value="YES" style="text;html=1;align=center;verticalAlign=middle;resizable=0;points=[];autosize=1;strokeColor=none;fillColor=none;" vertex="1" parent="1">
          <mxGeometry x="1115" y="5288" width="50" height="30" as="geometry" />
        </mxCell>
        <mxCell id="UDX0wKx2XlwWkAEXpSnz-64" value="NO" style="text;html=1;align=center;verticalAlign=middle;resizable=0;points=[];autosize=1;strokeColor=none;fillColor=none;" vertex="1" parent="1">
          <mxGeometry x="820" y="5690" width="40" height="30" as="geometry" />
        </mxCell>
        <mxCell id="UDX0wKx2XlwWkAEXpSnz-66" style="edgeStyle=orthogonalEdgeStyle;rounded=0;orthogonalLoop=1;jettySize=auto;html=1;entryX=0.666;entryY=1.009;entryDx=0;entryDy=0;entryPerimeter=0;" edge="1" parent="1" source="x6S1XF_horREQcLStKP8-36" target="x6S1XF_horREQcLStKP8-42">
          <mxGeometry relative="1" as="geometry" />
        </mxCell>
        <mxCell id="UDX0wKx2XlwWkAEXpSnz-67" value="&lt;div style=&quot;text-align: justify;&quot;&gt;&lt;br&gt;&lt;/div&gt;" style="rounded=0;whiteSpace=wrap;html=1;" vertex="1" parent="1">
          <mxGeometry x="3660" y="-650" width="1130" height="1080" as="geometry" />
        </mxCell>
        <mxCell id="UDX0wKx2XlwWkAEXpSnz-68" value="&lt;div style=&quot;text-align: justify;&quot;&gt;&lt;span style=&quot;background-color: initial;&quot;&gt;&lt;font style=&quot;font-size: 14px;&quot; face=&quot;Times New Roman&quot;&gt;&lt;b&gt;References&lt;/b&gt;&lt;/font&gt;&lt;/span&gt;&lt;/div&gt;&lt;div style=&quot;text-align: justify;&quot;&gt;&lt;span style=&quot;background-color: initial;&quot;&gt;&lt;font style=&quot;font-size: 14px;&quot; face=&quot;Times New Roman&quot;&gt;&lt;b&gt;&lt;br&gt;&lt;/b&gt;&lt;/font&gt;&lt;/span&gt;&lt;/div&gt;&lt;div&gt;&lt;div style=&quot;text-align: justify;&quot;&gt;&lt;span style=&quot;background-color: initial;&quot;&gt;&lt;font size=&quot;3&quot; face=&quot;oHPbt5jCExaRlcsInjl2&quot;&gt;[1]&amp;nbsp;https://www.uml-diagrams.org/index-references.html&lt;/font&gt;&lt;/span&gt;&lt;/div&gt;&lt;div style=&quot;text-align: justify;&quot;&gt;&lt;font size=&quot;3&quot; face=&quot;oHPbt5jCExaRlcsInjl2&quot;&gt;&lt;br&gt;&lt;/font&gt;&lt;/div&gt;&lt;div style=&quot;text-align: justify;&quot;&gt;&lt;span style=&quot;background-color: initial;&quot;&gt;&lt;font size=&quot;3&quot; face=&quot;oHPbt5jCExaRlcsInjl2&quot;&gt;[A]&amp;nbsp;https://www.uml-diagrams.org/class-reference.html&lt;/font&gt;&lt;/span&gt;&lt;/div&gt;&lt;div style=&quot;text-align: justify;&quot;&gt;&lt;font size=&quot;3&quot; face=&quot;oHPbt5jCExaRlcsInjl2&quot;&gt;&lt;br&gt;&lt;/font&gt;&lt;/div&gt;&lt;div style=&quot;text-align: justify;&quot;&gt;&lt;span style=&quot;background-color: initial;&quot;&gt;&lt;font size=&quot;3&quot; face=&quot;oHPbt5jCExaRlcsInjl2&quot;&gt;[B]&amp;nbsp;https://www.uml-diagrams.org/activity-diagrams-reference.html&lt;/font&gt;&lt;/span&gt;&lt;/div&gt;&lt;div style=&quot;text-align: justify;&quot;&gt;&lt;font size=&quot;3&quot; face=&quot;oHPbt5jCExaRlcsInjl2&quot;&gt;&lt;br&gt;&lt;/font&gt;&lt;/div&gt;&lt;div style=&quot;text-align: justify;&quot;&gt;&lt;span style=&quot;background-color: initial;&quot;&gt;&lt;font size=&quot;3&quot; face=&quot;oHPbt5jCExaRlcsInjl2&quot;&gt;[C] https://www.uml-diagrams.org/sequence-diagrams-reference.html&lt;/font&gt;&lt;/span&gt;&lt;/div&gt;&lt;div style=&quot;text-align: justify;&quot;&gt;&lt;span style=&quot;background-color: initial;&quot;&gt;&lt;font size=&quot;3&quot; face=&quot;oHPbt5jCExaRlcsInjl2&quot;&gt;&amp;nbsp;&lt;/font&gt;&lt;/span&gt;&lt;/div&gt;&lt;div style=&quot;text-align: justify;&quot;&gt;&lt;span style=&quot;background-color: initial;&quot;&gt;&lt;font size=&quot;3&quot; face=&quot;oHPbt5jCExaRlcsInjl2&quot;&gt;[D]&amp;nbsp;https://www.uml-diagrams.org/use-case-reference.html&lt;/font&gt;&lt;/span&gt;&lt;/div&gt;&lt;div style=&quot;text-align: justify;&quot;&gt;&lt;font size=&quot;3&quot; face=&quot;oHPbt5jCExaRlcsInjl2&quot;&gt;&lt;br&gt;&lt;/font&gt;&lt;/div&gt;&lt;div style=&quot;text-align: justify;&quot;&gt;&lt;span style=&quot;background-color: initial;&quot;&gt;&lt;font size=&quot;3&quot; face=&quot;oHPbt5jCExaRlcsInjl2&quot;&gt;[E]&amp;nbsp;https://www.uml-diagrams.org/state-machine-diagrams-reference.htm&lt;/font&gt;&lt;/span&gt;&lt;/div&gt;&lt;div style=&quot;text-align: justify;&quot;&gt;&lt;font size=&quot;3&quot; face=&quot;oHPbt5jCExaRlcsInjl2&quot;&gt;&lt;br&gt;&lt;/font&gt;&lt;/div&gt;&lt;div style=&quot;text-align: justify;&quot;&gt;&lt;span style=&quot;background-color: initial;&quot;&gt;&lt;font size=&quot;3&quot; face=&quot;oHPbt5jCExaRlcsInjl2&quot;&gt;[F] https://www.uml-diagrams.org/component.html&lt;/font&gt;&lt;/span&gt;&lt;/div&gt;&lt;div&gt;&lt;div style=&quot;text-align: justify;&quot;&gt;&lt;font size=&quot;3&quot; face=&quot;oHPbt5jCExaRlcsInjl2&quot;&gt;&lt;br&gt;&lt;/font&gt;&lt;/div&gt;&lt;div style=&quot;text-align: justify;&quot;&gt;&lt;span style=&quot;background-color: initial;&quot;&gt;&lt;font size=&quot;3&quot; face=&quot;oHPbt5jCExaRlcsInjl2&quot;&gt;[X]&amp;nbsp;https://app.diagrams.net/?libs=aws4&amp;amp;splash=0&lt;/font&gt;&lt;/span&gt;&lt;/div&gt;&lt;/div&gt;&lt;/div&gt;" style="text;html=1;align=center;verticalAlign=middle;resizable=0;points=[];autosize=1;strokeColor=none;fillColor=none;" vertex="1" parent="1">
          <mxGeometry x="3745" y="-210" width="490" height="340" as="geometry" />
        </mxCell>
        <mxCell id="UDX0wKx2XlwWkAEXpSnz-69" value="" style="group" vertex="1" connectable="0" parent="1">
          <mxGeometry x="3877" y="156.25" width="696" height="220" as="geometry" />
        </mxCell>
        <mxCell id="UDX0wKx2XlwWkAEXpSnz-70" value="" style="rounded=1;whiteSpace=wrap;html=1;fillColor=none;strokeColor=#666666;dashed=1;dashPattern=1 2;fontColor=#666666;" vertex="1" parent="UDX0wKx2XlwWkAEXpSnz-69">
          <mxGeometry width="696" height="220" as="geometry" />
        </mxCell>
        <mxCell id="UDX0wKx2XlwWkAEXpSnz-71" value="Legend" style="text;html=1;strokeColor=none;fillColor=none;align=center;verticalAlign=middle;whiteSpace=wrap;rounded=0;fontStyle=1;fontColor=#666666;" vertex="1" parent="UDX0wKx2XlwWkAEXpSnz-69">
          <mxGeometry x="19" y="10" width="40" height="20" as="geometry" />
        </mxCell>
        <object placeholders="1" c4Name="name" c4Type="Person" c4Description="Description" label="&lt;b style=&quot;font-size: 9px;&quot;&gt;%c4Name%&lt;/b&gt;&lt;div style=&quot;font-size: 9px;&quot;&gt;[%c4Type%]&lt;/div&gt;&lt;br style=&quot;font-size: 9px;&quot;&gt;&lt;div style=&quot;font-size: 9px;&quot;&gt;%c4Description%&lt;/div&gt;" id="UDX0wKx2XlwWkAEXpSnz-72">
          <mxCell style="html=1;dashed=0;whitespace=wrap;fillColor=#08427b;strokeColor=none;fontColor=#ffffff;shape=mxgraph.c4.person;align=center;metaEdit=1;points=[[0.5,0,0],[1,0.5,0],[1,0.75,0],[0.75,1,0],[0.5,1,0],[0.25,1,0],[0,0.75,0],[0,0.5,0]];metaData={&quot;c4Type&quot;:{&quot;editable&quot;:false}};fontSize=9;" vertex="1" parent="UDX0wKx2XlwWkAEXpSnz-69">
            <mxGeometry x="19" y="35" width="60" height="80" as="geometry" />
          </mxCell>
        </object>
        <object placeholders="1" c4Name="name" c4Type="Software System" c4Description="Description" label="&lt;b style=&quot;font-size: 9px;&quot;&gt;%c4Name%&lt;/b&gt;&lt;div style=&quot;font-size: 9px;&quot;&gt;[%c4Type%]&lt;/div&gt;&lt;br style=&quot;font-size: 9px;&quot;&gt;&lt;div style=&quot;font-size: 9px;&quot;&gt;%c4Description%&lt;/div&gt;" id="UDX0wKx2XlwWkAEXpSnz-73">
          <mxCell style="rounded=1;whiteSpace=wrap;html=1;labelBackgroundColor=none;fillColor=#1168BD;fontColor=#ffffff;align=center;arcSize=10;strokeColor=#1168BD;metaEdit=1;metaData={&quot;c4Type&quot;:{&quot;editable&quot;:false}};points=[[0.25,0,0],[0.5,0,0],[0.75,0,0],[1,0.25,0],[1,0.5,0],[1,0.75,0],[0.75,1,0],[0.5,1,0],[0.25,1,0],[0,0.75,0],[0,0.5,0],[0,0.25,0]];fontSize=9;" vertex="1" parent="UDX0wKx2XlwWkAEXpSnz-69">
            <mxGeometry x="98" y="42.5" width="90" height="65" as="geometry" />
          </mxCell>
        </object>
        <object placeholders="1" c4Name="name" c4Type="Software System" c4Description="Description" label="&lt;b style=&quot;font-size: 9px;&quot;&gt;%c4Name%&lt;/b&gt;&lt;div style=&quot;font-size: 9px;&quot;&gt;[%c4Type%]&lt;/div&gt;&lt;br style=&quot;font-size: 9px;&quot;&gt;&lt;div style=&quot;font-size: 9px;&quot;&gt;%c4Description%&lt;/div&gt;" id="UDX0wKx2XlwWkAEXpSnz-74">
          <mxCell style="rounded=1;whiteSpace=wrap;html=1;labelBackgroundColor=none;fillColor=#999999;fontColor=#ffffff;align=center;arcSize=10;strokeColor=#8A8A8A;metaEdit=1;metaData={&quot;c4Type&quot;:{&quot;editable&quot;:false}};points=[[0.25,0,0],[0.5,0,0],[0.75,0,0],[1,0.25,0],[1,0.5,0],[1,0.75,0],[0.75,1,0],[0.5,1,0],[0.25,1,0],[0,0.75,0],[0,0.5,0],[0,0.25,0]];fontSize=9;" vertex="1" parent="UDX0wKx2XlwWkAEXpSnz-69">
            <mxGeometry x="203.5" y="42.5" width="90" height="65" as="geometry" />
          </mxCell>
        </object>
        <object placeholders="1" c4Name="name" c4Type="Component" c4Technology="technology" c4Description="Description" label="&lt;b style=&quot;font-size: 9px;&quot;&gt;%c4Name%&lt;/b&gt;&lt;div style=&quot;font-size: 9px;&quot;&gt;[%c4Type%: %c4Technology%]&lt;/div&gt;&lt;br style=&quot;font-size: 9px;&quot;&gt;&lt;div style=&quot;font-size: 9px;&quot;&gt;%c4Description%&lt;/div&gt;" id="UDX0wKx2XlwWkAEXpSnz-75">
          <mxCell style="rounded=1;whiteSpace=wrap;html=1;labelBackgroundColor=none;fillColor=#85BBF0;fontColor=#ffffff;align=center;arcSize=10;strokeColor=#78A8D8;metaEdit=1;metaData={&quot;c4Type&quot;:{&quot;editable&quot;:false}};points=[[0.25,0,0],[0.5,0,0],[0.75,0,0],[1,0.25,0],[1,0.5,0],[1,0.75,0],[0.75,1,0],[0.5,1,0],[0.25,1,0],[0,0.75,0],[0,0.5,0],[0,0.25,0]];fontSize=9;" vertex="1" parent="UDX0wKx2XlwWkAEXpSnz-69">
            <mxGeometry x="426" y="42.5" width="90" height="65" as="geometry" />
          </mxCell>
        </object>
        <object placeholders="1" c4Name="name" c4Type="Container" c4Technology="technology" c4Description="Description" label="&lt;b style=&quot;font-size: 9px;&quot;&gt;%c4Name%&lt;/b&gt;&lt;div style=&quot;font-size: 9px;&quot;&gt;[%c4Type%: %c4Technology%]&lt;/div&gt;&lt;br style=&quot;font-size: 9px;&quot;&gt;&lt;div style=&quot;font-size: 9px;&quot;&gt;%c4Description%&lt;/div&gt;" id="UDX0wKx2XlwWkAEXpSnz-76">
          <mxCell style="rounded=1;whiteSpace=wrap;html=1;labelBackgroundColor=none;fillColor=#438DD5;fontColor=#ffffff;align=center;arcSize=10;strokeColor=#3C7FC0;metaEdit=1;metaData={&quot;c4Type&quot;:{&quot;editable&quot;:false}};points=[[0.25,0,0],[0.5,0,0],[0.75,0,0],[1,0.25,0],[1,0.5,0],[1,0.75,0],[0.75,1,0],[0.5,1,0],[0.25,1,0],[0,0.75,0],[0,0.5,0],[0,0.25,0]];fontSize=9;" vertex="1" parent="UDX0wKx2XlwWkAEXpSnz-69">
            <mxGeometry x="310" y="42.5" width="94.5" height="65" as="geometry" />
          </mxCell>
        </object>
        <object placeholders="1" c4Name="name" c4Type="ExecutionEnvironment" c4Application="applicationAndVersion" label="&lt;div style=&quot;text-align: left; font-size: 9px;&quot;&gt;%c4Name%&lt;/div&gt;&lt;div style=&quot;text-align: left; font-size: 9px;&quot;&gt;[%c4Application%]&lt;/div&gt;" id="UDX0wKx2XlwWkAEXpSnz-77">
          <mxCell style="rounded=1;whiteSpace=wrap;html=1;labelBackgroundColor=none;fillColor=#ffffff;fontColor=#000000;align=left;arcSize=5;strokeColor=#000000;verticalAlign=bottom;metaEdit=1;metaData={&quot;c4Type&quot;:{&quot;editable&quot;:false}};points=[[0.25,0,0],[0.5,0,0],[0.75,0,0],[1,0.25,0],[1,0.5,0],[1,0.75,0],[0.75,1,0],[0.5,1,0],[0.25,1,0],[0,0.75,0],[0,0.5,0],[0,0.25,0]];fontSize=9;" vertex="1" parent="UDX0wKx2XlwWkAEXpSnz-69">
            <mxGeometry x="59" y="130" width="141" height="60" as="geometry" />
          </mxCell>
        </object>
        <object placeholders="1" c4Name="hostname" c4Type="DeploymentNode" c4OperationSystem="operationSystem" c4ScalingFactor="" label="&lt;div style=&quot;text-align: left; font-size: 9px;&quot;&gt;%c4Name%&lt;/div&gt;&lt;div style=&quot;text-align: left; font-size: 9px;&quot;&gt;[%c4OperationSystem%]&lt;/div&gt;&lt;div style=&quot;text-align: right; font-size: 9px;&quot;&gt;%c4ScalingFactor%&lt;/div&gt;" id="UDX0wKx2XlwWkAEXpSnz-78">
          <mxCell style="rounded=1;whiteSpace=wrap;html=1;labelBackgroundColor=none;fillColor=#ffffff;fontColor=#000000;align=left;arcSize=5;strokeColor=#000000;verticalAlign=bottom;metaEdit=1;metaData={&quot;c4Type&quot;:{&quot;editable&quot;:false}};points=[[0.25,0,0],[0.5,0,0],[0.75,0,0],[1,0.25,0],[1,0.5,0],[1,0.75,0],[0.75,1,0],[0.5,1,0],[0.25,1,0],[0,0.75,0],[0,0.5,0],[0,0.25,0]];fontSize=9;" vertex="1" parent="UDX0wKx2XlwWkAEXpSnz-69">
            <mxGeometry x="220" y="130" width="140" height="60" as="geometry" />
          </mxCell>
        </object>
        <object placeholders="1" c4Type="Database" c4Technology="Technology" c4Description="Description" label="%c4Type%&lt;div style=&quot;font-size: 9px;&quot;&gt;[Container:&amp;nbsp;%c4Technology%]&lt;/div&gt;&lt;br style=&quot;font-size: 9px;&quot;&gt;&lt;div style=&quot;font-size: 9px;&quot;&gt;%c4Description%&lt;/div&gt;" id="UDX0wKx2XlwWkAEXpSnz-79">
          <mxCell style="shape=cylinder;whiteSpace=wrap;html=1;boundedLbl=1;rounded=0;labelBackgroundColor=none;fillColor=#438DD5;fontSize=9;fontColor=#ffffff;align=center;strokeColor=#3C7FC0;metaEdit=1;points=[[0.5,0,0],[1,0.25,0],[1,0.5,0],[1,0.75,0],[0.5,1,0],[0,0.75,0],[0,0.5,0],[0,0.25,0]];metaData={&quot;c4Type&quot;:{&quot;editable&quot;:false}};" vertex="1" parent="UDX0wKx2XlwWkAEXpSnz-69">
            <mxGeometry x="380" y="130" width="90" height="70" as="geometry" />
          </mxCell>
        </object>
        <object placeholders="1" c4Type="Database" c4Technology="Technology" c4Description="External" label="%c4Type%&lt;div style=&quot;font-size: 9px;&quot;&gt;[Container:&amp;nbsp;%c4Technology%]&lt;/div&gt;&lt;br style=&quot;font-size: 9px;&quot;&gt;&lt;div style=&quot;font-size: 9px;&quot;&gt;%c4Description%&lt;/div&gt;" id="UDX0wKx2XlwWkAEXpSnz-80">
          <mxCell style="shape=cylinder;whiteSpace=wrap;html=1;boundedLbl=1;rounded=1;labelBackgroundColor=none;fillColor=#999999;fontSize=9;fontColor=#ffffff;align=center;strokeColor=#8A8A8A;metaEdit=1;points=[[0.5,0,0],[1,0.25,0],[1,0.5,0],[1,0.75,0],[0.5,1,0],[0,0.75,0],[0,0.5,0],[0,0.25,0]];metaData={&quot;c4Type&quot;:{&quot;editable&quot;:false}};arcSize=10;" vertex="1" parent="UDX0wKx2XlwWkAEXpSnz-69">
            <mxGeometry x="480" y="130" width="90" height="70" as="geometry" />
          </mxCell>
        </object>
        <object placeholders="1" c4Type="Relationship" c4Technology="technology" c4Description="Relationship" label="&lt;div style=&quot;text-align: left; font-size: 9px;&quot;&gt;&lt;div style=&quot;text-align: center; font-size: 9px;&quot;&gt;&lt;b style=&quot;font-size: 9px;&quot;&gt;%c4Description%&lt;/b&gt;&lt;/div&gt;&lt;div style=&quot;text-align: center; font-size: 9px;&quot;&gt;[%c4Technology%]&lt;/div&gt;&lt;/div&gt;" id="UDX0wKx2XlwWkAEXpSnz-81">
          <mxCell style="edgeStyle=none;rounded=0;html=1;jettySize=auto;orthogonalLoop=1;strokeColor=#707070;strokeWidth=2;fontColor=#707070;jumpStyle=none;dashed=1;metaEdit=1;metaData={&quot;c4Type&quot;:{&quot;editable&quot;:false}};fontSize=9;" edge="1" parent="UDX0wKx2XlwWkAEXpSnz-69">
            <mxGeometry width="160" relative="1" as="geometry">
              <mxPoint x="536" y="74.5" as="sourcePoint" />
              <mxPoint x="676" y="74.5" as="targetPoint" />
            </mxGeometry>
          </mxCell>
        </object>
        <mxCell id="UDX0wKx2XlwWkAEXpSnz-82" value="Figure 1- The legend used in a C4 diagram&amp;nbsp;" style="text;html=1;align=center;verticalAlign=middle;resizable=0;points=[];autosize=1;strokeColor=none;fillColor=none;" vertex="1" parent="1">
          <mxGeometry x="4070" y="380" width="260" height="30" as="geometry" />
        </mxCell>
        <mxCell id="UDX0wKx2XlwWkAEXpSnz-84" value="&lt;font face=&quot;Times New Roman&quot; style=&quot;font-size: 18px;&quot;&gt;LEGEND OF THE CLASSIFICATION SCHEMA&lt;/font&gt;" style="text;html=1;align=center;verticalAlign=middle;whiteSpace=wrap;rounded=0;" vertex="1" parent="1">
          <mxGeometry x="3760" y="-590" width="430" height="30" as="geometry" />
        </mxCell>
        <mxCell id="UDX0wKx2XlwWkAEXpSnz-86" value="" style="rhombus;whiteSpace=wrap;html=1;" vertex="1" parent="1">
          <mxGeometry x="3785" y="-545" width="80" height="80" as="geometry" />
        </mxCell>
        <mxCell id="UDX0wKx2XlwWkAEXpSnz-87" value="&lt;div style=&quot;text-align: justify;&quot;&gt;&lt;font face=&quot;Times New Roman&quot; style=&quot;font-size: 14px;&quot;&gt;&lt;span style=&quot;background-color: initial;&quot;&gt;DECISION NODE:&amp;nbsp;&lt;/span&gt;&lt;span style=&quot;background-color: initial;&quot; id=&quot;docs-internal-guid-c53fe905-7fff-42df-3a7a-793209fcedb1&quot;&gt;&lt;span style=&quot;color: rgb(13, 13, 13); background-color: rgb(255, 255, 255); font-variant-numeric: normal; font-variant-east-asian: normal; font-variant-alternates: normal; font-variant-position: normal; vertical-align: baseline; white-space-collapse: preserve;&quot;&gt;It contains an objective description formulated as a question, to help the users choose the right path to classify the diagram.&lt;/span&gt;&lt;/span&gt;&lt;/font&gt;&lt;/div&gt;" style="text;html=1;align=center;verticalAlign=middle;whiteSpace=wrap;rounded=0;" vertex="1" parent="1">
          <mxGeometry x="3920" y="-520" width="810" height="30" as="geometry" />
        </mxCell>
        <mxCell id="UDX0wKx2XlwWkAEXpSnz-88" value="" style="rounded=1;whiteSpace=wrap;html=1;fillColor=#d5e8d4;strokeColor=#82b366;" vertex="1" parent="1">
          <mxGeometry x="3765" y="-410" width="120" height="60" as="geometry" />
        </mxCell>
        <mxCell id="UDX0wKx2XlwWkAEXpSnz-89" value="" style="rounded=1;whiteSpace=wrap;html=1;fillColor=#3399FF;strokeColor=#82b366;" vertex="1" parent="1">
          <mxGeometry x="3755" y="-320" width="140" height="70" as="geometry" />
        </mxCell>
        <mxCell id="UDX0wKx2XlwWkAEXpSnz-93" value="&lt;div style=&quot;text-align: justify;&quot;&gt;&lt;span style=&quot;font-size: 14px; background-color: initial;&quot;&gt;&lt;font face=&quot;Times New Roman&quot;&gt;GREEN RECTANGLE NODE: It represent the type of classification of the diagrams you are referring to. By answering the decision node and followirng the right path, the user will be able to classify the diagram he is referring to&lt;/font&gt;&lt;/span&gt;&lt;/div&gt;" style="text;html=1;align=center;verticalAlign=middle;whiteSpace=wrap;rounded=0;" vertex="1" parent="1">
          <mxGeometry x="3920" y="-395" width="810" height="30" as="geometry" />
        </mxCell>
        <mxCell id="UDX0wKx2XlwWkAEXpSnz-95" value="&lt;div style=&quot;text-align: justify;&quot;&gt;&lt;span style=&quot;background-color: initial;&quot;&gt;&lt;font face=&quot;Times New Roman&quot; style=&quot;font-size: 14px;&quot;&gt;BLUE RECTANGLE NODE: It represent the type of classification of the diagrams you are referring to. By answering the decision node and followirng the right path, the user will be able to classify the diagram he is referring to&lt;/font&gt;&lt;/span&gt;&lt;/div&gt;&lt;div style=&quot;text-align: justify;&quot;&gt;&lt;br&gt;&lt;/div&gt;" style="text;html=1;align=right;verticalAlign=middle;whiteSpace=wrap;rounded=0;" vertex="1" parent="1">
          <mxGeometry x="3930" y="-300" width="790" height="30" as="geometry" />
        </mxCell>
      </root>
    </mxGraphModel>
  </diagram>
</mxfile>
